<svg width="24" height="24" viewBox="0 0 24 24" fill="none" xmlns="http://www.w3.org/2000/svg">
<path d="M20.5 6H15.5C15.224 6 15 5.775 15 5.49998V0.500016C15 0.224016 14.776 0 14.5 0H4.5C3.67298 0 3 0.672984 3 1.5V22.5C3 23.327 3.67298 24 4.5 24H19.5C20.327 24 21 23.327 21 22.5V6.50002C21 6.22402 20.776 6 20.5 6ZM20 22.5C20 22.775 19.776 23 19.5 23H4.5C4.224 23 3.99998 22.775 3.99998 22.5V1.5C3.99998 1.22498 4.224 0.999984 4.5 0.999984H14V5.49998C14 6.327 14.673 6.99998 15.5 6.99998H20V22.5Z" fill="white"/>
<path d="M20.8529 6.14698L14.8529 0.146982C14.6579 -0.0480176 14.3409 -0.0480176 14.1459 0.146982C13.9509 0.341982 13.9509 0.658998 14.1459 0.853998L20.1459 6.854C20.2439 6.95098 20.3719 7.00001 20.4999 7.00001C20.6279 7.00001 20.7559 6.95103 20.8529 6.854C21.0479 6.659 21.0479 6.34198 20.8529 6.14698Z" fill="white"/>
<path d="M16.5 9H7.50002C7.22402 9 7 9.22402 7 9.50002C7 9.77602 7.22402 10 7.50002 10H16.5C16.776 10 17 9.77602 17 9.50002C17 9.22402 16.776 9 16.5 9Z" fill="white"/>
<path d="M16.5 13H7.50002C7.22402 13 7 13.224 7 13.5C7 13.776 7.22402 14 7.50002 14H16.5C16.776 14 17 13.776 17 13.5C17 13.224 16.776 13 16.5 13Z" fill="white"/>
<path d="M16.5 17H7.50002C7.22402 17 7 17.224 7 17.5C7 17.776 7.22402 18 7.50002 18H16.5C16.776 18 17 17.776 17 17.5C17 17.224 16.776 17 16.5 17Z" fill="white"/>
</svg>
