<svg width="12" height="12" viewBox="0 0 12 12" fill="none" xmlns="http://www.w3.org/2000/svg">
<path d="M2.6565 0C2.2795 0 1.953 0.1835 1.6565 0.4375C1.3595 0.6915 1.086 1.033 0.844 1.469C0.359 2.342 0 3.5665 0 5.094C0 5.877 0.1815 6.684 0.547 7.328C0.627 7.469 0.758 7.5625 0.8595 7.6875C0.588 8.0195 0.1405 8.6405 0.1405 8.6405L0.86 9.36C0.86 9.36 1.356 8.6765 1.6725 8.2975C1.8735 8.3835 2.063 8.5005 2.2975 8.5005C3.155 8.5005 4.0495 8.1255 4.8755 7.6565C5.141 7.86 5.44 8.0005 5.7505 8.0005C6.778 8.0005 7.559 7.397 8.11 6.86C8.27 6.7035 8.3775 6.5885 8.5005 6.4535C8.4985 6.5905 8.4945 6.7155 8.532 6.8755C8.561 6.9965 8.5945 7.147 8.7195 7.282C8.8445 7.4165 9.069 7.5005 9.2505 7.5005C9.6155 7.5005 9.8265 7.3325 10.0475 7.1725C10.268 7.0125 10.4775 6.821 10.7035 6.641C11.158 6.2815 11.643 6 12 6V5C11.207 5 10.588 5.469 10.0935 5.8595C9.8595 6.0445 9.6485 6.207 9.4845 6.328V6.2655C9.49 6.084 9.5175 5.8805 9.4845 5.6565C9.46483 5.52029 9.41099 5.39128 9.328 5.2815C9.2245 5.135 8.992 5 8.797 5C8.5155 5 8.412 5.121 8.3125 5.203C8.2125 5.285 8.1385 5.369 8.047 5.4685C7.8635 5.668 7.6445 5.9085 7.406 6.1405C6.986 6.5505 6.492 6.8615 5.953 6.9375C6.3105 6.6505 6.67 6.365 6.922 6.047C7.254 5.629 7.5 5.203 7.5 4.703C7.5 4.422 7.465 4.037 7.25 3.672C7.035 3.307 6.5725 3 6 3C5.385 3 4.824 3.3025 4.4845 3.7815C4.1445 4.26 4 4.873 4 5.5935C4 6.084 4.1115 6.49 4.2655 6.8435C3.5705 7.2095 2.85 7.5 2.297 7.5C3.1425 6.2325 4 4.506 4 2.406C4 1.971 4.004 1.457 3.8595 0.9845C3.787 0.748 3.672 0.508 3.469 0.3125C3.265 0.1175 2.965 0 2.656 0H2.6565ZM2.6565 1C2.7465 1 2.75 1.0175 2.7815 1.047C2.8125 1.076 2.8495 1.1485 2.8905 1.281C2.9705 1.545 3 1.99 3 2.406C3 4.1775 2.242 5.7285 1.4845 6.891C1.467 6.861 1.4395 6.8595 1.422 6.828C1.162 6.373 1 5.711 1 5.094C1 3.7205 1.328 2.656 1.719 1.953C1.914 1.6015 2.115 1.344 2.297 1.1875C2.4785 1.031 2.633 1 2.6565 1ZM6 4C6.2775 4 6.3185 4.0665 6.3905 4.1875C6.463 4.3085 6.5 4.533 6.5 4.703C6.5 4.828 6.395 5.119 6.1405 5.4375C5.92 5.715 5.584 6.002 5.219 6.2815C5.131 6.08 5 5.9335 5 5.594C5 5.014 5.123 4.59 5.297 4.344C5.4705 4.0975 5.666 4 6 4ZM0 11V12H12V11H0Z" fill="white"/>
</svg>
