<svg width="13" height="16" viewBox="0 0 13 16" fill="none" xmlns="http://www.w3.org/2000/svg">
<path d="M12.9664 0.133645C12.9431 0.0931701 12.9087 0.0594165 12.867 0.0359082C12.8252 0.0123999 12.7776 -1.0422e-06 12.7292 0H0.270839C0.222358 -1.05976e-06 0.174765 0.0123981 0.133029 0.0359031C0.0912927 0.0594082 0.0569431 0.0931573 0.0335657 0.133628C0.0101884 0.174098 -0.00135953 0.219806 0.000127446 0.26598C0.00161442 0.312153 0.0160817 0.357101 0.0420192 0.396129L5.14583 8.07484V14.1935C5.14583 14.2336 5.15562 14.2731 5.17443 14.309C5.19323 14.3448 5.22053 14.376 5.25417 14.4L7.42083 15.9484C7.46107 15.9771 7.50892 15.9947 7.55901 15.999C7.6091 16.0033 7.65947 15.9942 7.70445 15.9728C7.74944 15.9513 7.78727 15.9184 7.81372 15.8776C7.84016 15.8368 7.85417 15.7899 7.85417 15.7419V8.07484L12.958 0.396129C12.9839 0.357103 12.9984 0.31216 12.9999 0.26599C13.0014 0.219819 12.9898 0.174114 12.9664 0.133645ZM7.35451 7.86194C7.32707 7.90324 7.3125 7.95112 7.3125 8V15.2258L5.6875 14.0645V8C5.6875 7.95112 5.67293 7.90324 5.64549 7.86194L0.762943 0.516129H12.2371L7.35451 7.86194Z" fill="white"/>
</svg>
