<svg width="24" height="24" viewBox="0 0 24 24" fill="none" xmlns="http://www.w3.org/2000/svg">
<g clip-path="url(#clip0_205_51)">
<path d="M14 4L11 7H3C2.20435 7 1.44129 7.31607 0.87868 7.87868C0.31607 8.44129 0 9.20435 0 10L0 13C0 13.7956 0.31607 14.5587 0.87868 15.1213C1.44129 15.6839 2.20435 16 3 16V19C3 19.5304 3.21071 20.0391 3.58579 20.4142C3.96086 20.7893 4.46957 21 5 21H6C6.53043 21 7.03914 20.7893 7.41421 20.4142C7.78929 20.0391 8 19.5304 8 19V16H11L14 19H16V4H14ZM14.414 5H15V18H14.414L11.414 15H3C2.46957 15 1.96086 14.7893 1.58579 14.4142C1.21071 14.0391 1 13.5304 1 13V10C1 9.46957 1.21071 8.96086 1.58579 8.58579C1.96086 8.21071 2.46957 8 3 8H11.414L14.414 5ZM18 7V8.008C18.8331 8.1284 19.5949 8.54494 20.1459 9.1813C20.6969 9.81766 21.0002 10.6312 21.0002 11.473C21.0002 12.3148 20.6969 13.1283 20.1459 13.7647C19.5949 14.4011 18.8331 14.8176 18 14.938V15.945C19.1007 15.8228 20.1177 15.2989 20.8563 14.4737C21.5949 13.6485 22.0033 12.58 22.0033 11.4725C22.0033 10.365 21.5949 9.29646 20.8563 8.47128C20.1177 7.64609 19.1007 7.12225 18 7ZM18 10.059V12.887C18.2923 12.7835 18.5454 12.592 18.7243 12.3388C18.9033 12.0855 18.9994 11.7831 18.9994 11.473C18.9994 11.1629 18.9033 10.8605 18.7243 10.6072C18.5454 10.354 18.2923 10.1625 18 10.059ZM4 16H7V19C7 19.2652 6.89464 19.5196 6.70711 19.7071C6.51957 19.8946 6.26522 20 6 20H5C4.73478 20 4.48043 19.8946 4.29289 19.7071C4.10536 19.5196 4 19.2652 4 19V16Z" fill="white"/>
</g>
<defs>
<clipPath id="clip0_205_51">
<rect width="24" height="24" fill="white"/>
</clipPath>
</defs>
</svg>
