<svg width="17" height="18" viewBox="0 0 17 18" fill="none" xmlns="http://www.w3.org/2000/svg">
<path d="M8.5 0.611084C3.8131 0.611084 0 4.42418 0 9.11108C0 11.1638 0.731567 13.0489 1.94763 14.5194C1.95075 14.5236 1.95103 14.529 1.95443 14.533C2.83248 15.5918 3.93522 16.4035 5.16403 16.928C5.1782 16.9339 5.19208 16.9404 5.20625 16.9464C5.3057 16.9883 5.40628 17.0271 5.50715 17.0651C5.54682 17.0801 5.58648 17.0954 5.62672 17.1099C5.7137 17.141 5.80125 17.1705 5.88937 17.1988C5.94575 17.217 6.00213 17.2348 6.05908 17.2518C6.137 17.275 6.2152 17.2974 6.29397 17.3187C6.3631 17.3374 6.4328 17.3547 6.5025 17.3714C6.57305 17.3884 6.64388 17.4054 6.715 17.4204C6.79433 17.4374 6.87452 17.4524 6.95498 17.4672C7.01958 17.4791 7.0839 17.4915 7.14907 17.502C7.23832 17.5165 7.32813 17.5278 7.41823 17.5394C7.47632 17.5468 7.53412 17.5553 7.59248 17.5615C7.69448 17.5723 7.79733 17.5799 7.90047 17.587C7.94835 17.5904 7.99595 17.5955 8.04412 17.5981C8.19457 17.6066 8.34672 17.6111 8.5 17.6111C8.65328 17.6111 8.80543 17.6066 8.95645 17.5986C9.00462 17.5961 9.05222 17.591 9.1001 17.5876C9.20323 17.5802 9.30608 17.5728 9.40808 17.5621C9.46645 17.5558 9.52425 17.5473 9.58233 17.54C9.67243 17.5284 9.76225 17.517 9.8515 17.5026C9.91638 17.4921 9.98098 17.4796 10.0456 17.4677C10.1258 17.453 10.2059 17.438 10.2856 17.421C10.3567 17.4057 10.4272 17.389 10.4981 17.372C10.5678 17.3549 10.6375 17.3377 10.7066 17.3193C10.7854 17.2983 10.8636 17.2756 10.9415 17.2524C10.9984 17.2354 11.0548 17.2175 11.1112 17.1994C11.1993 17.1711 11.2869 17.1416 11.3739 17.1104C11.4138 17.096 11.4535 17.0807 11.4934 17.0657C11.5946 17.0277 11.6949 16.9886 11.7943 16.947C11.8085 16.941 11.8224 16.9345 11.8365 16.9285C13.0651 16.4041 14.1681 15.5923 15.0461 14.5335C15.0495 14.5296 15.0498 14.5239 15.0529 14.5199C16.2684 13.0489 17 11.1638 17 9.11108C17 4.42418 13.1869 0.611084 8.5 0.611084ZM11.9445 16.2568C11.9402 16.2587 11.9363 16.261 11.932 16.263C11.8309 16.3117 11.728 16.3576 11.6243 16.4024C11.6008 16.4123 11.5776 16.4225 11.554 16.4324C11.4634 16.4704 11.3716 16.5064 11.2792 16.5409C11.2407 16.5554 11.2022 16.5696 11.1633 16.5832C11.0815 16.6123 10.9993 16.6404 10.9163 16.667C10.8647 16.6835 10.8128 16.699 10.761 16.7143C10.6873 16.7364 10.6134 16.7577 10.5386 16.7775C10.4757 16.7942 10.4122 16.8095 10.3488 16.8246C10.2822 16.8404 10.2159 16.8566 10.1487 16.8707C10.0753 16.8863 10.0014 16.8996 9.92772 16.913C9.86793 16.924 9.80843 16.9356 9.74808 16.9453C9.66507 16.9583 9.5812 16.9688 9.49762 16.9792C9.44463 16.9861 9.39193 16.994 9.33838 16.9997C9.2429 17.0098 9.14657 17.0164 9.05052 17.0232C9.00773 17.026 8.96523 17.0308 8.92188 17.0331C8.78163 17.0405 8.6411 17.0444 8.5 17.0444C8.3589 17.0444 8.21837 17.0405 8.0784 17.0331C8.03533 17.0308 7.99283 17.0263 7.94977 17.0232C7.85343 17.0167 7.75738 17.0098 7.6619 16.9997C7.60835 16.994 7.55565 16.9861 7.50267 16.9792C7.41908 16.9688 7.33522 16.9583 7.2522 16.9453C7.19185 16.9356 7.13235 16.924 7.07257 16.913C6.99862 16.8996 6.92467 16.886 6.85157 16.8707C6.78442 16.8566 6.71783 16.8404 6.65153 16.8246C6.58807 16.8092 6.5246 16.7942 6.4617 16.7775C6.38718 16.7577 6.31295 16.7362 6.23928 16.7143C6.18743 16.699 6.13558 16.6835 6.08402 16.667C6.001 16.6404 5.91855 16.6123 5.83695 16.5832C5.79813 16.5693 5.7596 16.5551 5.72107 16.5409C5.6287 16.5064 5.5369 16.4704 5.44623 16.4324C5.42272 16.4228 5.39977 16.4126 5.37625 16.4027C5.27255 16.3582 5.1697 16.312 5.06827 16.2633C5.06402 16.2613 5.06005 16.2593 5.0558 16.257C4.06725 15.7788 3.19402 15.0999 2.4854 14.2754C3.03308 12.2586 4.58348 10.6329 6.57815 9.98602C6.61753 10.0101 6.65862 10.0316 6.69913 10.0543C6.72293 10.0676 6.74645 10.0818 6.77053 10.0945C6.85497 10.1393 6.94053 10.1812 7.02808 10.2189C7.09523 10.2484 7.16465 10.2733 7.23378 10.2988C7.24738 10.3036 7.26098 10.309 7.27458 10.3138C7.65878 10.4498 8.0699 10.5278 8.5 10.5278C8.9301 10.5278 9.34122 10.4498 9.72513 10.3138C9.73873 10.309 9.75233 10.3036 9.76593 10.2988C9.83507 10.2733 9.90448 10.2484 9.97163 10.2189C10.0592 10.1812 10.1447 10.1393 10.2292 10.0945C10.2533 10.0815 10.2768 10.0676 10.3006 10.0543C10.3411 10.0316 10.3825 10.0101 10.4221 9.98573C12.4168 10.6329 13.9669 12.2586 14.5149 14.2751C13.8063 15.0993 12.933 15.7782 11.9445 16.2568ZM5.38333 6.84442C5.38333 5.126 6.78158 3.72775 8.5 3.72775C10.2184 3.72775 11.6167 5.126 11.6167 6.84442C11.6167 7.93752 11.0497 8.89943 10.1955 9.4559C10.0838 9.52843 9.96767 9.59332 9.84838 9.64998C9.83422 9.65678 9.82033 9.66387 9.80617 9.67038C8.98563 10.0435 8.01437 10.0435 7.19383 9.67038C7.17967 9.66387 7.1655 9.65678 7.15162 9.64998C7.03205 9.59332 6.91617 9.52843 6.80453 9.4559C5.95028 8.89943 5.38333 7.93752 5.38333 6.84442ZM14.9399 13.7359C14.2976 11.8393 12.8322 10.3065 10.9599 9.5783C11.7087 8.90368 12.1833 7.92958 12.1833 6.84442C12.1833 4.81348 10.5309 3.16108 8.5 3.16108C6.46907 3.16108 4.81667 4.81348 4.81667 6.84442C4.81667 7.92958 5.29125 8.90368 6.04038 9.5783C4.16812 10.3068 2.70272 11.8393 2.0604 13.7359C1.12172 12.4329 0.566667 10.836 0.566667 9.11108C0.566667 4.7367 4.12562 1.17775 8.5 1.17775C12.8744 1.17775 16.4333 4.7367 16.4333 9.11108C16.4333 10.836 15.8783 12.4329 14.9399 13.7359Z" fill="white"/>
</svg>
