<svg width="18" height="18" viewBox="0 0 18 18" fill="none" xmlns="http://www.w3.org/2000/svg">
<path d="M17.4288 7.90363L9.41951 0.170579C9.18619 -0.0568596 8.81404 -0.0568596 8.58072 0.170579L0.571694 7.90333C0.453785 8.01712 0.387207 8.17394 0.387207 8.33782C0.387207 8.67135 0.657597 8.94171 0.991092 8.94171H2.05544V17.3961C2.05544 17.7296 2.32579 18 2.65932 18H6.88652C7.22005 18 7.4904 17.7296 7.4904 17.3961V12.565H10.5098V17.3961C10.5098 17.7296 10.7802 18 11.1137 18H15.3409C15.6744 18 15.9448 17.7296 15.9448 17.3961V8.94171H17.0091C17.1729 8.94171 17.3295 8.87524 17.4433 8.75752C17.6751 8.5177 17.6686 8.13541 17.4288 7.90363ZM15.9448 8.33782C15.6113 8.33782 15.3409 8.60817 15.3409 8.94171V17.3961H11.1137V12.565C11.1137 12.2315 10.8434 11.9611 10.5098 11.9611H7.4904C7.15687 11.9611 6.88652 12.2315 6.88652 12.565V17.3961H2.65932V8.94171C2.65932 8.60817 2.38897 8.33782 2.05544 8.33782H0.991092L9.00012 0.605074L17.0122 8.33782H15.9448Z" fill="#43E8FF"/>
</svg>
