<svg width="16" height="16" viewBox="0 0 16 16" fill="none" xmlns="http://www.w3.org/2000/svg">
<path d="M15.5802 12.3426L12.3417 10.1829C11.9307 9.91104 11.3798 10.0005 11.076 10.3885L10.1327 11.6013C10.0114 11.7612 9.79107 11.8076 9.61569 11.7101L9.43625 11.6112C8.8414 11.287 8.10126 10.8833 6.61001 9.39155C5.11876 7.89977 4.71429 7.15907 4.39006 6.56531L4.29167 6.38587C4.1929 6.21052 4.23839 5.98921 4.39831 5.86701L5.61038 4.92396C5.9982 4.6201 6.08778 4.06937 5.81622 3.65827L3.65654 0.419815C3.37824 0.00118918 2.81989 -0.12448 2.38904 0.134513L1.03484 0.947987C0.609337 1.19814 0.297165 1.60326 0.163778 2.07848C-0.323868 3.85528 0.0429834 6.92176 4.56019 11.4395C8.15353 15.0326 10.8286 15.9988 12.6673 15.9988C13.0904 16.0006 13.5119 15.9456 13.9204 15.8351C14.3957 15.7019 14.8009 15.3897 15.0509 14.9641L15.8652 13.6107C16.1246 13.1797 15.999 12.621 15.5802 12.3426ZM15.4058 13.3371L14.5934 14.6913C14.4139 14.9985 14.1224 15.2244 13.7801 15.3216C12.1399 15.7719 9.27415 15.3989 4.93745 11.0622C0.600745 6.72554 0.227769 3.86009 0.678108 2.21955C0.775469 1.87685 1.00162 1.58505 1.3092 1.40526L2.66341 0.592852C2.85035 0.480368 3.09269 0.534891 3.21345 0.716552L4.38662 2.47789L5.37129 3.95473C5.48921 4.13305 5.45047 4.37204 5.28224 4.50399L4.06989 5.44704C3.70094 5.72915 3.59558 6.23961 3.82274 6.64474L3.919 6.81965C4.25977 7.44462 4.68342 8.2221 6.23013 9.76856C7.77684 11.315 8.55407 11.7387 9.17876 12.0794L9.35392 12.1759C9.75902 12.403 10.2695 12.2977 10.5516 11.9288L11.4947 10.7164C11.6266 10.5483 11.8655 10.5096 12.0439 10.6274L15.2821 12.787C15.4639 12.9077 15.5184 13.1502 15.4058 13.3371Z" fill="white"/>
</svg>
