<svg width="24" height="24" viewBox="0 0 24 24" fill="none" xmlns="http://www.w3.org/2000/svg">
<path d="M12 3H13C15.1217 3 17.1566 3.84285 18.6569 5.34315C20.1572 6.84344 21 8.87827 21 11V12H12V3ZM13 11H20C20 9.14348 19.2625 7.36301 17.9498 6.05025C16.637 4.7375 14.8565 4 13 4V11ZM10 14H18C18 15.5823 17.5308 17.129 16.6518 18.4446C15.7727 19.7602 14.5233 20.7855 13.0615 21.391C11.5997 21.9965 9.99113 22.155 8.43928 21.8463C6.88743 21.5376 5.46197 20.7757 4.34315 19.6569C3.22433 18.538 2.4624 17.1126 2.15372 15.5607C1.84504 14.0089 2.00347 12.4003 2.60897 10.9385C3.21447 9.47672 4.23985 8.22729 5.55544 7.34824C6.87103 6.46919 8.41775 6 10 6V14ZM9 15V7.07C7.25105 7.32628 5.66373 8.23456 4.55663 9.61256C3.44954 10.9906 2.90459 12.7363 3.03116 14.4994C3.15773 16.2625 3.94645 17.9125 5.23902 19.1182C6.5316 20.3239 8.23237 20.9962 10 21C11.6835 21.0002 13.3107 20.3938 14.5835 19.2918C15.8562 18.1899 16.6893 16.6662 16.93 15H9Z" fill="white"/>
</svg>
