<svg width="19" height="13" viewBox="0 0 19 13" fill="none" xmlns="http://www.w3.org/2000/svg">
<path d="M17.4429 0H1.2429C0.745837 0 0.342899 0.415729 0.342899 0.928571V12.0714C0.342337 12.2665 0.402112 12.4567 0.513599 12.6143C0.682574 12.8563 0.953887 12.9997 1.2429 13H17.4429C17.7315 12.9998 18.0025 12.8568 18.1716 12.6156C18.2833 12.4576 18.3434 12.267 18.3429 12.0714V0.928571C18.3429 0.415729 17.94 0 17.4429 0ZM0.942899 11.8941V2.03543L7.1274 6.96429L0.942899 11.8941ZM1.3134 12.381L7.6179 7.35552L8.793 8.29152C9.11696 8.54951 9.56883 8.54951 9.8928 8.29152L11.0679 7.35552L17.3724 12.381H1.3134ZM17.7429 11.8941L11.5584 6.96429L17.7429 2.03543V11.8941ZM17.7429 1.25326L9.5262 7.80155C9.4182 7.88756 9.2676 7.88756 9.1596 7.80155L0.942899 1.25326V0.928571C0.942899 0.757637 1.07722 0.619048 1.2429 0.619048H17.4429C17.6086 0.619048 17.7429 0.757637 17.7429 0.928571V1.25326Z" fill="white"/>
</svg>
