<svg width="24" height="24" viewBox="0 0 24 24" fill="none" xmlns="http://www.w3.org/2000/svg">
<path d="M6 5H8.5C8.5 4.20435 8.81607 3.44129 9.37868 2.87868C9.94129 2.31607 10.7044 2 11.5 2C12.2956 2 13.0587 2.31607 13.6213 2.87868C14.1839 3.44129 14.5 4.20435 14.5 5H17C17.7956 5 18.5587 5.31607 19.1213 5.87868C19.6839 6.44129 20 7.20435 20 8V19C20 19.7956 19.6839 20.5587 19.1213 21.1213C18.5587 21.6839 17.7956 22 17 22H6C5.20435 22 4.44129 21.6839 3.87868 21.1213C3.31607 20.5587 3 19.7956 3 19V8C3 7.20435 3.31607 6.44129 3.87868 5.87868C4.44129 5.31607 5.20435 5 6 5ZM6 6C5.46957 6 4.96086 6.21071 4.58579 6.58579C4.21071 6.96086 4 7.46957 4 8V19C4 19.5304 4.21071 20.0391 4.58579 20.4142C4.96086 20.7893 5.46957 21 6 21H17C17.5304 21 18.0391 20.7893 18.4142 20.4142C18.7893 20.0391 19 19.5304 19 19V8C19 7.46957 18.7893 6.96086 18.4142 6.58579C18.0391 6.21071 17.5304 6 17 6H16V9H7V6H6ZM8 8H15V6H8V8ZM11.5 3C10.9696 3 10.4609 3.21071 10.0858 3.58579C9.71071 3.96086 9.5 4.46957 9.5 5H13.5C13.5 4.46957 13.2893 3.96086 12.9142 3.58579C12.5391 3.21071 12.0304 3 11.5 3ZM17.15 11.6L10 18.75L6.8 15.55L7.507 14.843L10 17.336L16.442 10.893L17.149 11.6H17.15Z" fill="white"/>
</svg>
