<svg width="20" height="20" viewBox="0 0 20 20" fill="none" xmlns="http://www.w3.org/2000/svg">
<g clip-path="url(#clip0_205_59)">
<path d="M3.3232 13.7824C3.48027 13.8349 3.61008 13.9476 3.68414 14.0957C3.75821 14.2438 3.77045 14.4153 3.7182 14.5724L3.0932 16.4474C3.06966 16.5281 3.03007 16.6032 2.97682 16.6683C2.92357 16.7334 2.85773 16.787 2.78326 16.826C2.70879 16.865 2.62722 16.8886 2.54342 16.8954C2.45962 16.9021 2.37531 16.8919 2.29555 16.8653C2.2158 16.8387 2.14222 16.7963 2.07923 16.7407C2.01625 16.685 1.96514 16.6171 1.92898 16.5413C1.89281 16.4654 1.87233 16.3829 1.86876 16.2989C1.86519 16.2149 1.8786 16.1311 1.9082 16.0524L2.5332 14.1774C2.58568 14.0203 2.69835 13.8905 2.84647 13.8165C2.99459 13.7424 3.16605 13.7301 3.3232 13.7824ZM15.1982 13.7824C15.3553 13.8349 15.4851 13.9476 15.5591 14.0957C15.6332 14.2438 15.6455 14.4153 15.5932 14.5724L14.9682 16.4474C14.9447 16.5281 14.9051 16.6032 14.8518 16.6683C14.7986 16.7334 14.7327 16.787 14.6583 16.826C14.5838 16.865 14.5022 16.8886 14.4184 16.8954C14.3346 16.9021 14.2503 16.8919 14.1706 16.8653C14.0908 16.8387 14.0172 16.7963 13.9542 16.7407C13.8912 16.685 13.8401 16.6171 13.804 16.5413C13.7678 16.4654 13.7473 16.3829 13.7438 16.2989C13.7402 16.2149 13.7536 16.1311 13.7832 16.0524L14.4082 14.1774C14.4607 14.0203 14.5734 13.8905 14.7215 13.8165C14.8696 13.7424 15.0411 13.7301 15.1982 13.7824ZM5.8232 15.6574C5.98027 15.7099 6.11008 15.8226 6.18414 15.9707C6.25821 16.1188 6.27045 16.2903 6.2182 16.4474L5.5932 18.3224C5.56966 18.4031 5.53007 18.4782 5.47682 18.5433C5.42357 18.6084 5.35773 18.662 5.28326 18.701C5.20879 18.74 5.12722 18.7636 5.04342 18.7704C4.95962 18.7771 4.87531 18.7669 4.79555 18.7403C4.7158 18.7137 4.64222 18.6713 4.57923 18.6157C4.51625 18.56 4.46514 18.4921 4.42898 18.4163C4.39281 18.3404 4.37233 18.2579 4.36876 18.1739C4.36519 18.0899 4.3786 18.0061 4.4082 17.9274L5.0332 16.0524C5.08568 15.8953 5.19835 15.7655 5.34647 15.6915C5.49459 15.6174 5.66605 15.6051 5.8232 15.6574ZM17.6982 15.6574C17.8553 15.7099 17.9851 15.8226 18.0591 15.9707C18.1332 16.1188 18.1455 16.2903 18.0932 16.4474L17.4682 18.3224C17.4447 18.4031 17.4051 18.4782 17.3518 18.5433C17.2986 18.6084 17.2327 18.662 17.1583 18.701C17.0838 18.74 17.0022 18.7636 16.9184 18.7704C16.8346 18.7771 16.7503 18.7669 16.6706 18.7403C16.5908 18.7137 16.5172 18.6713 16.4542 18.6157C16.3912 18.56 16.3401 18.4921 16.304 18.4163C16.2678 18.3404 16.2473 18.2579 16.2438 18.1739C16.2402 18.0899 16.2536 18.0061 16.2832 17.9274L16.9082 16.0524C16.9607 15.8953 17.0734 15.7655 17.2215 15.6915C17.3696 15.6174 17.5411 15.6051 17.6982 15.6574ZM16.7569 5.03365C16.4974 3.72511 15.826 2.53392 14.8409 1.63425C13.8559 0.734588 12.6089 0.173636 11.2823 0.0334142C9.95559 -0.106807 8.61887 0.181056 7.46752 0.854915C6.31618 1.52877 5.4106 2.55329 4.8832 3.77865C4.29174 3.71052 3.69261 3.76382 3.12247 3.93529C2.55233 4.10676 2.02319 4.39279 1.56744 4.77587C1.1117 5.15896 0.738931 5.63103 0.471973 6.16319C0.205016 6.69535 0.0494827 7.27639 0.0148962 7.87075C-0.0196903 8.46511 0.0673979 9.06028 0.270829 9.61981C0.474259 10.1793 0.789752 10.6915 1.19799 11.1248C1.60623 11.5582 2.09862 11.9037 2.64502 12.1401C3.19142 12.3765 3.78033 12.499 4.3757 12.4999H16.2507C17.2021 12.501 18.1183 12.1404 18.8138 11.4912C19.5093 10.8421 19.932 9.9528 19.9964 9.00359C20.0608 8.05439 19.7619 7.1162 19.1604 6.37907C18.5589 5.64195 17.6998 5.161 16.7569 5.03365ZM10.6257 1.2499C11.8556 1.24965 13.0425 1.70274 13.9594 2.52254C14.8763 3.34235 15.4589 4.47134 15.5957 5.69365C15.6127 5.84723 15.686 5.98906 15.8014 6.09179C15.9168 6.19451 16.0662 6.25084 16.2207 6.2499H16.2507C16.9137 6.2499 17.5496 6.5133 18.0185 6.98214C18.4873 7.45098 18.7507 8.08686 18.7507 8.7499C18.7507 9.41294 18.4873 10.0488 18.0185 10.5177C17.5496 10.9865 16.9137 11.2499 16.2507 11.2499H4.3757C3.93329 11.2497 3.49597 11.1555 3.09267 10.9737C2.68937 10.7918 2.32928 10.5264 2.03622 10.195C1.74316 9.86355 1.52381 9.47368 1.39268 9.05115C1.26155 8.62862 1.22163 8.18307 1.27556 7.74396C1.32949 7.30485 1.47604 6.8822 1.70552 6.50396C1.93499 6.12572 2.24217 5.80052 2.60672 5.54986C2.97127 5.29921 3.38488 5.12881 3.82021 5.04995C4.25553 4.97109 4.70263 4.98556 5.13195 5.0924C5.28511 5.13061 5.44705 5.10944 5.58525 5.03315C5.72344 4.95686 5.82765 4.83111 5.87695 4.68115C6.2073 3.68262 6.84397 2.81361 7.69647 2.19763C8.54897 1.58164 9.57394 1.25003 10.6257 1.2499ZM8.81695 14.0949C8.8689 13.9912 8.94868 13.904 9.04736 13.8431C9.14604 13.7822 9.25972 13.7499 9.3757 13.7499H10.6257C10.7247 13.75 10.8222 13.7736 10.9103 13.8187C10.9984 13.8639 11.0745 13.9293 11.1323 14.0096C11.1902 14.0899 11.2281 14.1828 11.2431 14.2807C11.258 14.3785 11.2495 14.4785 11.2182 14.5724L10.8682 15.6249H11.8757C11.9933 15.6251 12.1085 15.6584 12.208 15.7211C12.3075 15.7838 12.3873 15.8733 12.4382 15.9793C12.4891 16.0853 12.5091 16.2036 12.4958 16.3204C12.4826 16.4373 12.4366 16.548 12.3632 16.6399L9.8632 19.7649C9.774 19.8757 9.64967 19.9528 9.51075 19.9834C9.37183 20.014 9.22663 19.9962 9.09914 19.9331C8.97165 19.8701 8.8695 19.7654 8.80955 19.6364C8.74961 19.5074 8.73546 19.3618 8.76945 19.2237L9.2007 17.4999H8.1257C8.01912 17.4999 7.91431 17.4726 7.82123 17.4207C7.72815 17.3688 7.6499 17.2939 7.59391 17.2032C7.53792 17.1126 7.50605 17.0091 7.50133 16.9026C7.49661 16.7961 7.5192 16.6902 7.56695 16.5949L8.81695 14.0949Z" fill="white"/>
</g>
<defs>
<clipPath id="clip0_205_59">
<rect width="20" height="20" fill="white"/>
</clipPath>
</defs>
</svg>
