<svg width="24" height="24" viewBox="0 0 24 24" fill="none" xmlns="http://www.w3.org/2000/svg">
<path d="M3 19C3 19.5304 3.21071 20.0391 3.58579 20.4142C3.96086 20.7893 4.46957 21 5 21H11.764C11.2711 20.4505 10.999 19.7381 11 19H3ZM14 21C14.5304 21 15.0391 20.7893 15.4142 20.4142C15.7893 20.0391 16 19.5304 16 19V6C16 5.232 16.289 4.53 16.764 4H8C7.46957 4 6.96086 4.21071 6.58579 4.58579C6.21071 4.96086 6 5.46957 6 6V18H12V19C12 19.5304 12.2107 20.0391 12.5858 20.4142C12.9609 20.7893 13.4696 21 14 21ZM5 6C5 5.20435 5.31607 4.44129 5.87868 3.87868C6.44129 3.31607 7.20435 3 8 3H19C19.7956 3 20.5587 3.31607 21.1213 3.87868C21.6839 4.44129 22 5.20435 22 6V8H17V19C17 19.7956 16.6839 20.5587 16.1213 21.1213C15.5587 21.6839 14.7956 22 14 22H5C4.20435 22 3.44129 21.6839 2.87868 21.1213C2.31607 20.5587 2 19.7956 2 19V18H5V6ZM21 7V6C21 5.46957 20.7893 4.96086 20.4142 4.58579C20.0391 4.21071 19.5304 4 19 4C18.4696 4 17.9609 4.21071 17.5858 4.58579C17.2107 4.96086 17 5.46957 17 6V7H21Z" fill="white"/>
</svg>
