<svg width="187" height="148" viewBox="0 0 187 148" fill="none" xmlns="http://www.w3.org/2000/svg">
<path d="M165.365 78.8614C165.365 117.047 134.358 148 96.0903 148C57.8368 148 26.8156 117.047 26.8156 78.8614C26.8156 40.6754 57.8229 9.70898 96.0903 9.70898C134.358 9.70898 165.365 40.6616 165.365 78.8614Z" fill="#121415"/>
<path d="M133.263 66.6629C133.263 72.776 128.303 77.7273 122.179 77.7273C116.055 77.7273 111.095 72.776 111.095 66.6629C111.095 60.5498 116.055 55.5985 122.179 55.5985C128.303 55.5985 133.263 60.5637 133.263 66.6629Z" fill="white"/>
<path d="M122.193 50.3983L122.151 50.1493L122.11 50.3983V49.8865L114.531 2.40649H122.11H122.193H129.772L122.193 49.8865V50.3983Z" fill="white"/>
<path d="M115.986 51.6292L115.847 51.408L115.903 51.6569L115.709 51.1867L90.576 10.1655L97.5866 7.28872L97.6697 7.26105L104.666 4.37048L115.792 51.159L115.986 51.6292Z" fill="white"/>
<path d="M110.707 55.1007L110.416 54.8932L110.624 55.1836L110.125 54.6719L55.8833 14.9922L63.3788 7.53761L63.4619 7.45463L70.9713 0L110.208 54.5889L110.707 55.1007Z" fill="white"/>
<path d="M107.16 60.287L106.703 60.1764L107.105 60.4392L106.246 60.0657L19.902 38.5178L25.3193 25.3927L25.3747 25.2544L30.8058 12.1293L106.301 59.9274L107.16 60.287Z" fill="white"/>
<path d="M104.694 67.3545L104.14 67.4375L104.694 67.5343L103.6 67.5204L0.394257 83.3978L0.518951 66.7598V66.58L0.62979 49.9419L103.6 67.3545H104.694Z" fill="white"/>
<path d="M137.115 73.1909L137.364 73.26L137.142 73.1217L137.613 73.3292L184.221 85.4585L181.173 92.3876L181.146 92.4567L178.098 99.3858L137.572 73.3983L137.115 73.1909Z" fill="white"/>
<path d="M138.486 67.0225L138.736 66.9949L138.486 66.9395L138.985 66.9534L186.715 60.4392L186.549 68.0045L186.535 68.0875L186.369 75.6527L138.985 67.0364L138.486 67.0225Z" fill="white"/>
<path d="M137.392 60.7988L137.613 60.6743L137.364 60.7296L137.835 60.5498L179.469 36.3741L182.199 43.4277L182.226 43.5107L184.956 50.5642L137.863 60.619L137.392 60.7988Z" fill="white"/>
<path d="M133.997 55.4602L134.164 55.2666L133.942 55.4049L134.316 55.0591L163.591 16.8732L168.801 22.3639L168.856 22.4192L174.08 27.9099L134.371 55.1145L133.997 55.4602Z" fill="white"/>
<path d="M128.843 51.809L128.899 51.5739L128.76 51.7814L128.968 51.325L141.465 4.8822L148.379 7.9664L148.462 8.00789L155.376 11.0921L129.051 51.3526L128.843 51.809Z" fill="white"/>
<path d="M31.8727 104.794C35.3918 113.451 40.6013 121.238 47.1131 127.738L53.2231 123.686C48.8034 113.922 31.9835 104.849 31.8727 104.794Z" fill="#26B9FF"/>
<path d="M28.7691 95.1537C28.7691 95.1537 59.056 89.1098 93.2084 102.47C93.2084 102.47 87.5695 106.052 82.6233 111.294C82.6371 111.294 73.7007 98.3347 28.7691 95.1537Z" fill="#26B9FF"/>
<path d="M30.307 100.52C30.307 100.52 59.2777 100.326 72.426 115.346C72.426 115.346 61.4114 123.451 57.7259 123.686C57.7259 123.686 51.4497 110.243 30.307 100.52Z" fill="#26B9FF"/>
<path d="M47.1131 127.738C47.1131 127.738 85.2973 84.2692 163.869 93.3281C163.869 93.3281 126.682 90.0641 100.164 111.515C73.6314 132.98 51.8931 127.268 47.1131 127.738Z" fill="#2D8EFF"/>
<path d="M49.0389 129.163C49.0389 129.163 76.5271 140.131 100.164 117.96C123.8 95.79 162.22 94.7527 163.425 95.2368C163.425 95.2368 134.787 101.516 119.505 119.634C104.195 137.752 64.0715 146.811 49.0389 129.163Z" fill="#2EE6FF"/>
<path d="M137.323 85.666H136.644V92.5536H137.323V85.666Z" fill="#755441"/>
<path d="M140.731 80.4104C140.731 84.767 139.054 88.3076 136.976 88.3076C134.898 88.3076 133.221 84.7808 133.221 80.4104C133.221 76.0538 134.898 72.5132 136.976 72.5132C139.054 72.5132 140.731 76.0538 140.731 80.4104Z" fill="#26B9FF"/>
<path d="M114.947 127.738C85.893 149.604 57.8922 136.493 57.726 136.424C68.7129 143.74 81.9028 148 96.1041 148C128.095 148 155.015 126.355 162.982 96.9241C136.477 104.019 144.084 105.803 114.947 127.738Z" fill="#2D8EFF"/>
<path d="M143.363 83.2595H142.449V92.5536H143.363V83.2595Z" fill="#755441"/>
<path d="M142.948 83.785C145.894 83.785 148.282 78.4784 148.282 71.9323C148.282 65.3862 145.894 60.0796 142.948 60.0796C140.002 60.0796 137.613 65.3862 137.613 71.9323C137.613 78.4784 140.002 83.785 142.948 83.785Z" fill="#2D8EFF"/>
<path d="M148.891 83.2595H147.977V92.5536H148.891V83.2595Z" fill="#755441"/>
<path d="M153.491 76.1645C153.491 82.0425 151.219 86.814 148.42 86.814C145.622 86.814 143.349 82.0425 143.349 76.1645C143.349 70.2865 145.622 65.515 148.42 65.515C151.233 65.515 153.491 70.2865 153.491 76.1645Z" fill="#26B9FF"/>
<path d="M51.131 137.42L51.034 136.853C50.937 136.327 42.1807 83.7159 69.7797 40.5786L69.9321 40.3435L71.096 41.1042L70.9435 41.3255C68.5189 45.1842 47.5287 80.5072 57.0471 136.618L57.1856 137.42H51.131Z" fill="#121415"/>
<path d="M51.7129 136.728C51.7129 136.728 42.5548 84.1723 70.5002 40.7169C70.5002 40.7169 46.2818 77.2985 56.3543 136.728H51.7129Z" fill="white"/>
<path d="M48.1383 99.04C46.6004 99.04 44.3975 98.0028 42.5964 93.0791C40.9615 88.6119 42.5548 82.402 42.6102 82.1254L42.8596 81.1572L43.6771 81.7381C43.8987 81.8902 49.1359 85.6106 50.7708 90.0779C53.1677 96.6059 50.563 98.3623 49.3299 98.8188C48.9419 98.9709 48.5401 99.04 48.1383 99.04Z" fill="#121415"/>
<path d="M43.2891 82.3052C43.2891 82.3052 41.6681 88.5151 43.2475 92.844C44.827 97.1729 46.9745 98.9571 49.1082 98.1826C51.2418 97.4081 51.7129 94.6558 50.1335 90.3269C48.5401 86.0117 43.2891 82.3052 43.2891 82.3052Z" fill="white"/>
<path d="M57.8091 99.04C57.1163 99.04 56.4652 98.8326 55.8694 98.4315C54.7056 97.6431 54.1929 96.3984 54.3592 94.8079C54.5116 93.328 55.2736 91.5716 56.6037 89.6076C59.2777 85.666 65.263 83.3286 65.5124 83.2318L66.4407 82.8722L66.4546 83.868C66.4546 84.1446 66.4961 90.5481 63.8083 94.4898C61.7993 97.4772 59.7211 99.04 57.8091 99.04Z" fill="#121415"/>
<path d="M65.7618 83.8818C65.7618 83.8818 59.7626 86.1915 57.1718 89.9949C54.5809 93.7983 54.3869 96.592 56.2573 97.8645C58.1278 99.1369 60.6494 97.9198 63.2402 94.1164C65.8311 90.313 65.7618 83.8818 65.7618 83.8818Z" fill="white"/>
<path d="M49.8148 86.2468C48.4431 86.2468 45.9631 85.3755 44.6607 79.5805C43.6216 74.9335 46.0185 68.9864 46.1155 68.7374L46.4896 67.8108L47.2239 68.4885C47.4179 68.6683 52.1286 73.0387 53.1677 77.6858C53.6942 80.0093 53.7496 81.9041 53.3478 83.3424C52.9183 84.8776 51.9623 85.8457 50.6045 86.15C50.3413 86.2192 50.078 86.2468 49.8148 86.2468Z" fill="#121415"/>
<path d="M46.7667 69.0002C46.7667 69.0002 44.3421 74.9474 45.3397 79.4423C46.3372 83.9372 48.2353 85.9841 50.4521 85.5C52.6689 85.0021 53.5002 82.3467 52.5027 77.8518C51.4912 73.3569 46.7667 69.0002 46.7667 69.0002Z" fill="white"/>
<path d="M60.1367 86.3438C59.3054 86.3438 58.5434 86.0671 57.9061 85.5139C56.9085 84.6703 55.0658 82.1393 59.5548 76.8145C62.6306 73.1771 68.8237 71.476 69.087 71.4068L70.0568 71.144L69.9599 72.1398C69.9321 72.4164 69.2948 78.7923 66.219 82.4297C64.0577 85.0022 61.9517 86.3438 60.1367 86.3438Z" fill="#121415"/>
<path d="M69.281 72.0845C69.281 72.0845 63.074 73.758 60.0951 77.2709C57.1163 80.7838 56.6314 83.5361 58.3633 84.9883C60.0951 86.4543 62.7276 85.5 65.7064 81.9871C68.6713 78.4742 69.281 72.0845 69.281 72.0845Z" fill="white"/>
<path d="M53.14 73.4122C52.087 73.4122 49.5931 72.8037 49.1913 67.1885C48.9004 63.2192 51.6021 58.6136 51.7268 58.42L52.2394 57.5625L52.8629 58.337C53.0014 58.5168 56.3405 62.6936 56.6314 66.6491C57.0471 72.4994 54.4978 73.3154 53.3894 73.3984C53.2924 73.4122 53.2231 73.4122 53.14 73.4122Z" fill="#121415"/>
<path d="M52.3225 58.7657C52.3225 58.7657 49.607 63.3436 49.8841 67.1332C50.1612 70.9366 51.4497 72.8452 53.334 72.7069C55.2044 72.5686 56.2158 70.494 55.9387 66.6906C55.6616 62.9011 52.3225 58.7657 52.3225 58.7657Z" fill="white"/>
<path d="M61.5084 74.6569C60.9819 74.6569 60.4831 74.5186 60.012 74.242C59.2916 73.8271 58.4326 72.9558 58.488 71.227C58.5295 69.9684 59.056 68.4609 60.0536 66.7459C62.0487 63.3021 66.8841 61.0062 67.0919 60.9232L67.9925 60.4945L68.0756 61.4903C68.0894 61.7116 68.4912 67.0363 66.4961 70.4801C64.9305 73.2185 63.1987 74.6569 61.5084 74.6569Z" fill="#121415"/>
<path d="M67.3967 61.5594C67.3967 61.5594 62.5752 63.8138 60.6632 67.1055C58.7512 70.3971 58.7512 72.7068 60.3722 73.6473C61.9933 74.5878 64.0022 73.4398 65.9142 70.1482C67.8262 66.8565 67.3967 61.5594 67.3967 61.5594Z" fill="white"/>
<path d="M58.3217 61.1307C58.197 61.1307 58.0585 61.1169 57.9338 61.103C57.1856 61.0062 56.1742 60.5775 55.6339 59.1253C55.2459 58.088 55.1767 56.6773 55.4122 54.9485C55.8971 51.4908 59.056 48.0332 59.1807 47.8811L59.8596 47.1481L60.3168 48.0332C60.4 48.213 62.5059 52.3898 62.021 55.8613C61.3975 60.453 59.444 61.1307 58.3217 61.1307Z" fill="#121415"/>
<path d="M59.7072 48.3513C59.7072 48.3513 56.5622 51.7536 56.1049 55.0453C55.6477 58.3369 56.4098 60.1902 58.0308 60.4253C59.6518 60.6466 60.8849 59.0561 61.3421 55.7783C61.7993 52.4866 59.7072 48.3513 59.7072 48.3513Z" fill="white"/>
<path d="M65.1245 61.9468C64.598 61.9468 64.1131 61.7946 63.6559 61.5042C62.8107 60.951 61.1758 59.2083 64.0161 54.8656C65.9281 51.9473 70.2647 50.1632 70.4448 50.0802L71.3731 49.7068L71.4008 50.7026C71.4008 50.8962 71.5116 55.5847 69.5996 58.503C68.131 60.7573 66.5931 61.9468 65.1245 61.9468Z" fill="#121415"/>
<path d="M70.7219 50.7302C70.7219 50.7302 66.4268 52.4729 64.6118 55.2528C62.7969 58.0327 62.686 60.0381 64.0438 60.9371C65.4154 61.8361 67.2166 60.9233 69.0316 58.1434C70.8466 55.3634 70.7219 50.7302 70.7219 50.7302Z" fill="white"/>
<path d="M63.0601 49.9142C62.9631 49.9142 62.8523 49.9142 62.7553 49.8866C61.9378 49.7759 61.3005 49.2365 60.9819 48.3652C60.7048 47.6046 60.6493 46.5811 60.8156 45.3364C61.162 42.8469 63.4203 40.3712 63.5173 40.2744L64.1962 39.5414L64.6534 40.4265C64.7227 40.551 66.219 43.5384 65.8726 46.0417C65.3877 49.4163 63.9052 49.9142 63.0601 49.9142Z" fill="#121415"/>
<path d="M64.0299 40.7446C64.0299 40.7446 61.827 43.1373 61.5083 45.4332C61.1897 47.7429 61.7162 49.0429 62.8523 49.2089C63.9884 49.361 64.8612 48.2546 65.1799 45.9449C65.4986 43.649 64.0299 40.7446 64.0299 40.7446Z" fill="white"/>
<path d="M68.9623 51.0483C68.4497 51.0483 67.9786 50.8685 67.5768 50.5227C66.9533 49.9834 66.7178 49.1812 66.9256 48.2822C67.1057 47.4939 67.6184 46.6087 68.4497 45.6682C70.0984 43.7735 73.3543 42.9436 73.4929 42.9021L74.4627 42.6532L74.3519 43.649C74.338 43.7873 73.9501 47.1066 72.2875 49.0014C71.1098 50.3568 69.9876 51.0483 68.9623 51.0483Z" fill="#121415"/>
<path d="M73.6591 43.566C73.6591 43.566 70.5002 44.3544 68.9762 46.1109C67.4383 47.8673 67.175 49.2504 68.034 49.9972C68.893 50.7441 70.237 50.2877 71.7749 48.545C73.2989 46.8024 73.6591 43.566 73.6591 43.566Z" fill="white"/>
<path d="M68.3804 45.3916C68.1033 45.3916 67.8124 45.3363 67.5491 45.2118C66.8425 44.9076 65.3739 43.8288 66.8841 40.3159C67.8816 38.0062 70.708 36.222 70.8327 36.1529L71.6779 35.6273L71.8718 36.6093C71.8996 36.7476 72.5507 40.0254 71.5532 42.3351C70.4725 44.8523 69.2256 45.3916 68.3804 45.3916Z" fill="#121415"/>
<path d="M71.2068 36.7338C71.2068 36.7338 68.4497 38.4487 67.5214 40.5925C66.5931 42.7362 66.7594 44.1331 67.8123 44.5895C68.8653 45.0459 70.0014 44.2022 70.9159 42.0585C71.8441 39.9148 71.2068 36.7338 71.2068 36.7338Z" fill="white"/>
<path d="M52.7797 142.247L53.2924 141.61C83.5377 103.397 82.3323 68.2673 82.0829 64.3809L82.0691 64.1458L83.4545 64.0352L83.4684 64.2841C86.4334 108.058 58.1555 144.017 57.8645 144.376L57.5043 144.833L52.7797 142.247Z" fill="#121415"/>
<path d="M57.3242 143.934C57.3242 143.934 85.8515 108.21 82.7618 64.0767C82.7618 64.0767 85.893 101.502 53.8327 142.025L57.3242 143.934Z" fill="white"/>
<path d="M77.012 117.559C76.0699 117.559 75.2524 117.2 74.6428 116.508C74.0748 115.858 73.5206 114.738 74.1579 113.078C74.6151 111.861 75.6265 110.561 77.1783 109.219C80.2818 106.509 85.7683 105.859 86.0039 105.831L87.0014 105.72L86.752 106.688C86.6966 106.91 85.325 112.262 82.2215 114.973C80.2541 116.688 78.4945 117.559 77.012 117.559Z" fill="#121415"/>
<path d="M86.0731 106.509C86.0731 106.509 84.7292 111.847 81.7643 114.447C78.7993 117.047 76.444 117.504 75.1693 116.052C73.8946 114.599 74.6567 112.331 77.6355 109.731C80.6004 107.131 86.0731 106.509 86.0731 106.509Z" fill="white"/>
<path d="M69.6689 113.576C68.3527 113.576 66.0528 112.76 65.5263 107.255C65.1383 103.162 67.8123 98.3348 67.9232 98.1273L68.4081 97.256L69.0593 98.0167C69.2117 98.1965 72.7585 102.429 73.1603 106.522C73.7422 112.552 71.1375 113.451 69.9876 113.562C69.8767 113.576 69.7659 113.576 69.6689 113.576Z" fill="#121415"/>
<path d="M68.5328 98.4592C68.5328 98.4592 72.0935 102.664 72.4676 106.578C72.8417 110.506 71.8441 112.677 69.9183 112.857C67.9786 113.037 66.5931 111.1 66.219 107.172C65.8311 103.258 68.5328 98.4592 68.5328 98.4592Z" fill="white"/>
<path d="M80.9468 107.242C80.1848 107.242 79.5059 106.979 78.924 106.481C78.0511 105.72 76.4717 103.466 80.4757 98.9156C83.1913 95.8314 88.5532 94.4622 88.7748 94.4069L89.7447 94.1718L89.6339 95.1675C89.6061 95.4027 88.955 100.88 86.2394 103.978C84.3413 106.107 82.5124 107.242 80.9468 107.242Z" fill="#121415"/>
<path d="M88.9411 95.0708C88.9411 95.0708 88.3176 100.534 85.7129 103.494C83.1082 106.453 80.836 107.228 79.3812 105.942C77.9264 104.669 78.3836 102.318 80.9884 99.3582C83.5931 96.4124 88.9411 95.0708 88.9411 95.0708Z" fill="white"/>
<path d="M73.1465 103.092C71.9273 103.092 69.7243 102.332 68.6852 97.2145C67.8678 93.1899 70.0291 88.1002 70.1123 87.8928L70.5002 86.98L71.2207 87.6715C71.3869 87.8375 75.3633 91.6685 76.1807 95.707C76.5825 97.7124 76.6102 99.3583 76.2361 100.603C75.7235 102.304 74.6151 102.871 73.77 103.037C73.5621 103.065 73.3543 103.092 73.1465 103.092Z" fill="#121415"/>
<path d="M70.7496 88.1555C70.7496 88.1555 74.726 91.9589 75.5157 95.8176C76.3054 99.6763 75.5434 101.945 73.6314 102.332C71.7333 102.719 70.14 100.921 69.3502 97.0623C68.5744 93.2175 70.7496 88.1555 70.7496 88.1555Z" fill="white"/>
<path d="M83.5377 96.191C83.025 96.191 82.554 96.0527 82.1106 95.7623C81.2793 95.2229 79.6444 93.5218 82.4154 89.2205C84.2858 86.3299 88.5393 84.5596 88.7194 84.4766L89.6477 84.0894L89.6754 85.0852C89.6754 85.2788 89.814 89.8843 87.9435 92.7749C86.5026 95.0154 84.9786 96.191 83.5377 96.191Z" fill="#121415"/>
<path d="M88.9827 85.1128C88.9827 85.1128 89.1351 89.663 87.3617 92.4014C85.5882 95.1399 83.8286 96.0389 82.4709 95.1814C81.1269 94.3101 81.2101 92.3323 82.9835 89.5939C84.7708 86.8554 88.9827 85.1128 88.9827 85.1128Z" fill="white"/>
<path d="M76.7488 93.6739C75.7789 93.6739 73.5206 93.1345 73.3959 88.0863C73.3128 84.6564 75.8205 80.7838 75.9313 80.6317L76.4855 79.8019L77.0813 80.604C77.1921 80.7562 79.9077 84.4904 79.9908 87.9342C80.0324 89.6492 79.8107 91.0184 79.3119 91.9865C78.6192 93.3558 77.5939 93.66 76.8458 93.6739H76.7488Z" fill="#121415"/>
<path d="M76.4994 81.019C76.4994 81.019 79.1872 84.698 79.2704 87.9481C79.3535 91.2121 78.3975 92.9409 76.7903 92.9824C75.1832 93.0239 74.144 91.3366 74.0748 88.0726C73.9916 84.8224 76.4994 81.019 76.4994 81.019Z" fill="white"/>
<path d="M84.6184 84.8224C84.3274 84.8224 84.0365 84.7671 83.7594 84.6564C82.9281 84.3383 81.1685 83.1489 82.7895 78.9168C83.8702 76.0954 87.1815 73.7857 87.3339 73.6889L88.1514 73.1218L88.3869 74.09C88.4285 74.2559 89.3845 78.1838 88.3038 81.0052C87.1123 84.1586 85.6436 84.8224 84.6184 84.8224Z" fill="#121415"/>
<path d="M87.7219 74.2559C87.7219 74.2559 88.6779 78.1007 87.6665 80.7562C86.655 83.4116 85.3111 84.5042 84.0087 84.0063C82.7064 83.5085 82.4293 81.8073 83.4268 79.1518C84.4382 76.4964 87.7219 74.2559 87.7219 74.2559Z" fill="white"/>
<path d="M79.1318 82.6234C78.3005 82.6234 76.3331 82.1531 75.9867 77.838C75.7512 74.8229 77.774 71.3238 77.8572 71.1717L78.3559 70.3142L78.9933 71.0887C79.1041 71.227 81.6534 74.3665 81.8751 77.3816C82.2353 81.9042 80.2125 82.5542 79.3258 82.6234C79.2704 82.6234 79.2011 82.6234 79.1318 82.6234Z" fill="#121415"/>
<path d="M78.4668 71.5175C78.4668 71.5175 80.9745 74.5878 81.1962 77.4231C81.4179 80.2583 80.6697 81.8073 79.2842 81.918C77.8849 82.0286 76.915 80.6041 76.6934 77.7688C76.4578 74.9474 78.4668 71.5175 78.4668 71.5175Z" fill="white"/>
<path d="M85.4358 74.3804C85.2141 74.3804 84.9786 74.3389 84.7569 74.2559C84.1196 74.0208 82.748 73.108 83.9533 69.9547C84.7292 67.9078 87.1123 66.2619 87.2092 66.1928L88.0267 65.6257L88.2622 66.5939C88.2899 66.7183 88.9827 69.5259 88.2068 71.5728C87.3339 73.8964 86.2117 74.3804 85.4358 74.3804Z" fill="#121415"/>
<path d="M87.611 66.7598C87.611 66.7598 88.2761 69.4567 87.5695 71.3238C86.8629 73.1909 85.9207 73.9516 85.0063 73.6059C84.0919 73.2601 83.8979 72.0707 84.6045 70.2036C85.3111 68.3364 87.611 66.7598 87.611 66.7598Z" fill="white"/>
<path d="M80.5173 72.8037C79.8107 72.8037 78.5222 72.3888 77.9126 69.6088C77.4415 67.4789 78.536 64.7958 78.5776 64.6852L78.9517 63.7585L79.686 64.4362C79.7691 64.5192 81.8889 66.497 82.36 68.6269C83.0805 71.9185 81.6118 72.6101 80.933 72.7622C80.7944 72.7898 80.6559 72.8037 80.5173 72.8037Z" fill="#121415"/>
<path d="M79.2011 64.9342C79.2011 64.9342 81.2378 66.829 81.6673 68.7652C82.0968 70.7153 81.7366 71.8633 80.7667 72.0707C79.8107 72.2782 78.9933 71.393 78.5638 69.4429C78.1481 67.5067 79.2011 64.9342 79.2011 64.9342Z" fill="white"/>
<path d="M83.3022 68.7929C83.2467 68.7929 83.1775 68.7928 83.1082 68.779C82.4293 68.7099 80.8775 68.1981 81.1962 64.8512C81.404 62.6798 83.2606 60.4531 83.3437 60.3563L83.981 59.5956L84.466 60.4669C84.5214 60.5775 85.9346 63.1085 85.7268 65.2799C85.4358 68.4471 83.9395 68.7929 83.3022 68.7929Z" fill="#121415"/>
<path d="M83.8702 60.7988C83.8702 60.7988 85.228 63.2192 85.0479 65.2108C84.8539 67.1885 84.1612 68.1843 83.1775 68.0875C82.1938 67.9907 81.695 66.8981 81.8889 64.9065C82.0691 62.9287 83.8702 60.7988 83.8702 60.7988Z" fill="white"/>
</svg>
