<svg width="17" height="9" viewBox="0 0 17 9" fill="none" xmlns="http://www.w3.org/2000/svg">
<path d="M0.865222 0.498883C1.1074 0.254716 1.50166 0.253103 1.74582 0.49528L8.92971 7.62063C9.17387 7.8628 9.17549 8.25706 8.93331 8.50123C8.69113 8.7454 8.29687 8.74701 8.05271 8.50483L0.868824 1.37949C0.624658 1.13731 0.623045 0.743049 0.865222 0.498883Z" fill="#43E8FF"/>
<path d="M16.162 0.498883C15.9198 0.254716 15.5256 0.253103 15.2814 0.49528L8.09752 7.62063C7.85335 7.8628 7.85174 8.25706 8.09392 8.50123C8.33609 8.7454 8.73035 8.74701 8.97452 8.50483L16.1584 1.37949C16.4026 1.13731 16.4042 0.743049 16.162 0.498883Z" fill="#43E8FF"/>
</svg>
