<svg width="34" height="34" viewBox="0 0 34 34" fill="none" xmlns="http://www.w3.org/2000/svg">
<mask id="path-1-outside-1_203_1078" maskUnits="userSpaceOnUse" x="0" y="0" width="34" height="34" fill="black">
<rect fill="white" width="34" height="34"/>
<path d="M31.4 13.8H27.7365C27.5165 13.0626 27.219 12.3505 26.8491 11.6757L29.4464 9.0784C30.07 8.45607 30.0709 7.446 29.4486 6.82247C29.4479 6.82173 29.4471 6.821 29.4464 6.82027L27.1797 4.5536C26.5554 3.9318 25.5459 3.9318 24.9216 4.5536L22.3243 7.15093C21.6495 6.7812 20.9374 6.48387 20.2 6.264V2.6C20.2 1.71633 19.4837 1 18.6 1H15.4C14.5163 1 13.8 1.71633 13.8 2.6V6.264C13.0626 6.48387 12.3505 6.7812 11.6757 7.15093L9.0784 4.5536C8.45407 3.9318 7.4446 3.9318 6.82027 4.5536L4.5536 6.82027C3.93 7.4426 3.92907 8.45267 4.5514 9.0762C4.55213 9.07693 4.55287 9.07767 4.5536 9.0784L7.15093 11.6757C6.781 12.3505 6.48353 13.0626 6.26347 13.8H2.6C1.71633 13.8 1 14.5163 1 15.4V18.6C1 19.4837 1.71633 20.2 2.6 20.2H6.26347C6.48353 20.9374 6.781 21.6495 7.15093 22.3243L4.5536 24.9216C3.93 25.5439 3.92907 26.554 4.5514 27.1775C4.55213 27.1783 4.55287 27.179 4.5536 27.1797L6.82027 29.4464C7.4446 30.0682 8.45407 30.0682 9.0784 29.4464L11.6757 26.8491C12.3505 27.2189 13.0626 27.5162 13.8 27.736V31.4C13.8 32.2837 14.5163 33 15.4 33H18.6C19.4837 33 20.2 32.2837 20.2 31.4V27.736C20.9374 27.5162 21.6495 27.2189 22.3243 26.8491L24.9216 29.4464C25.5459 30.0682 26.5554 30.0682 27.1797 29.4464L29.4464 27.1797C30.0699 26.5574 30.0709 25.5473 29.4486 24.9238C29.4479 24.9231 29.4471 24.9223 29.4464 24.9216L26.8491 22.3243C27.219 21.6495 27.5165 20.9374 27.7365 20.2H31.4C32.2837 20.2 33 19.4837 33 18.6V15.4C33 14.5163 32.2837 13.8 31.4 13.8ZM31.9333 18.6C31.9333 18.8945 31.6945 19.1333 31.4 19.1333H27.3307C27.0871 19.1332 26.8745 19.298 26.8139 19.5339C26.5782 20.4502 26.2118 21.3279 25.7259 22.1397C25.6006 22.3496 25.634 22.6177 25.8069 22.7904L28.6923 25.6763C28.8992 25.8821 28.9 26.2168 28.6941 26.4237C28.6935 26.4243 28.6929 26.425 28.6923 26.4256L26.4256 28.6923C26.2161 28.8934 25.8852 28.8934 25.6757 28.6923L22.7904 25.8069C22.6178 25.6343 22.35 25.6009 22.1403 25.7259C21.3281 26.2115 20.4503 26.578 19.5339 26.8139C19.2981 26.8745 19.1332 27.0871 19.1333 27.3307V31.4C19.1333 31.6945 18.8945 31.9333 18.6 31.9333H15.4C15.1055 31.9333 14.8667 31.6945 14.8667 31.4V27.3307C14.8668 27.0871 14.702 26.8745 14.4661 26.8139C13.5497 26.578 12.6719 26.2115 11.8597 25.7259C11.65 25.6009 11.3822 25.6343 11.2096 25.8069L8.32427 28.6923C8.1148 28.8934 7.78387 28.8934 7.5744 28.6923L5.30773 26.4251C5.10187 26.2187 5.10187 25.8847 5.30773 25.6784L8.19307 22.7931C8.366 22.6203 8.3994 22.3523 8.27413 22.1424C7.7882 21.3305 7.4218 20.4529 7.18613 19.5365C7.12653 19.2997 6.9136 19.1335 6.66933 19.1333H2.6C2.30547 19.1333 2.06667 18.8945 2.06667 18.6V15.4C2.06667 15.1055 2.30547 14.8667 2.6 14.8667H6.66933C6.91287 14.8668 7.12553 14.7019 7.18613 14.4661C7.4218 13.5498 7.7882 12.6721 8.27413 11.8603C8.3994 11.6504 8.366 11.3823 8.19307 11.2096L5.30773 8.32373C5.10187 8.1174 5.10187 7.7834 5.30773 7.57707L7.5744 5.3104C7.78387 5.10927 8.1148 5.10927 8.32427 5.3104L11.2096 8.19573C11.3823 8.3682 11.6501 8.40133 11.8597 8.27627C12.6719 7.79007 13.5496 7.42313 14.4661 7.18667C14.7021 7.126 14.867 6.91307 14.8667 6.66933V2.6C14.8667 2.30547 15.1055 2.06667 15.4 2.06667H18.6C18.8945 2.06667 19.1333 2.30547 19.1333 2.6V6.66933C19.1332 6.91287 19.2981 7.12553 19.5339 7.18613C20.4503 7.42193 21.328 7.7882 22.1403 8.2736C22.3499 8.39867 22.6177 8.36553 22.7904 8.19307L25.6757 5.30773C25.8852 5.1066 26.2161 5.1066 26.4256 5.30773L28.6923 7.57493C28.8992 7.7808 28.9 8.11547 28.6941 8.3224C28.6935 8.323 28.6929 8.32367 28.6923 8.32427L25.8069 11.2096C25.634 11.3823 25.6006 11.6504 25.7259 11.8603C26.2118 12.6721 26.5782 13.5498 26.8139 14.4661C26.8745 14.7019 27.0871 14.8668 27.3307 14.8667H31.4C31.6945 14.8667 31.9333 15.1055 31.9333 15.4V18.6Z"/>
</mask>
<path d="M31.4 13.8H27.7365C27.5165 13.0626 27.219 12.3505 26.8491 11.6757L29.4464 9.0784C30.07 8.45607 30.0709 7.446 29.4486 6.82247C29.4479 6.82173 29.4471 6.821 29.4464 6.82027L27.1797 4.5536C26.5554 3.9318 25.5459 3.9318 24.9216 4.5536L22.3243 7.15093C21.6495 6.7812 20.9374 6.48387 20.2 6.264V2.6C20.2 1.71633 19.4837 1 18.6 1H15.4C14.5163 1 13.8 1.71633 13.8 2.6V6.264C13.0626 6.48387 12.3505 6.7812 11.6757 7.15093L9.0784 4.5536C8.45407 3.9318 7.4446 3.9318 6.82027 4.5536L4.5536 6.82027C3.93 7.4426 3.92907 8.45267 4.5514 9.0762C4.55213 9.07693 4.55287 9.07767 4.5536 9.0784L7.15093 11.6757C6.781 12.3505 6.48353 13.0626 6.26347 13.8H2.6C1.71633 13.8 1 14.5163 1 15.4V18.6C1 19.4837 1.71633 20.2 2.6 20.2H6.26347C6.48353 20.9374 6.781 21.6495 7.15093 22.3243L4.5536 24.9216C3.93 25.5439 3.92907 26.554 4.5514 27.1775C4.55213 27.1783 4.55287 27.179 4.5536 27.1797L6.82027 29.4464C7.4446 30.0682 8.45407 30.0682 9.0784 29.4464L11.6757 26.8491C12.3505 27.2189 13.0626 27.5162 13.8 27.736V31.4C13.8 32.2837 14.5163 33 15.4 33H18.6C19.4837 33 20.2 32.2837 20.2 31.4V27.736C20.9374 27.5162 21.6495 27.2189 22.3243 26.8491L24.9216 29.4464C25.5459 30.0682 26.5554 30.0682 27.1797 29.4464L29.4464 27.1797C30.0699 26.5574 30.0709 25.5473 29.4486 24.9238C29.4479 24.9231 29.4471 24.9223 29.4464 24.9216L26.8491 22.3243C27.219 21.6495 27.5165 20.9374 27.7365 20.2H31.4C32.2837 20.2 33 19.4837 33 18.6V15.4C33 14.5163 32.2837 13.8 31.4 13.8ZM31.9333 18.6C31.9333 18.8945 31.6945 19.1333 31.4 19.1333H27.3307C27.0871 19.1332 26.8745 19.298 26.8139 19.5339C26.5782 20.4502 26.2118 21.3279 25.7259 22.1397C25.6006 22.3496 25.634 22.6177 25.8069 22.7904L28.6923 25.6763C28.8992 25.8821 28.9 26.2168 28.6941 26.4237C28.6935 26.4243 28.6929 26.425 28.6923 26.4256L26.4256 28.6923C26.2161 28.8934 25.8852 28.8934 25.6757 28.6923L22.7904 25.8069C22.6178 25.6343 22.35 25.6009 22.1403 25.7259C21.3281 26.2115 20.4503 26.578 19.5339 26.8139C19.2981 26.8745 19.1332 27.0871 19.1333 27.3307V31.4C19.1333 31.6945 18.8945 31.9333 18.6 31.9333H15.4C15.1055 31.9333 14.8667 31.6945 14.8667 31.4V27.3307C14.8668 27.0871 14.702 26.8745 14.4661 26.8139C13.5497 26.578 12.6719 26.2115 11.8597 25.7259C11.65 25.6009 11.3822 25.6343 11.2096 25.8069L8.32427 28.6923C8.1148 28.8934 7.78387 28.8934 7.5744 28.6923L5.30773 26.4251C5.10187 26.2187 5.10187 25.8847 5.30773 25.6784L8.19307 22.7931C8.366 22.6203 8.3994 22.3523 8.27413 22.1424C7.7882 21.3305 7.4218 20.4529 7.18613 19.5365C7.12653 19.2997 6.9136 19.1335 6.66933 19.1333H2.6C2.30547 19.1333 2.06667 18.8945 2.06667 18.6V15.4C2.06667 15.1055 2.30547 14.8667 2.6 14.8667H6.66933C6.91287 14.8668 7.12553 14.7019 7.18613 14.4661C7.4218 13.5498 7.7882 12.6721 8.27413 11.8603C8.3994 11.6504 8.366 11.3823 8.19307 11.2096L5.30773 8.32373C5.10187 8.1174 5.10187 7.7834 5.30773 7.57707L7.5744 5.3104C7.78387 5.10927 8.1148 5.10927 8.32427 5.3104L11.2096 8.19573C11.3823 8.3682 11.6501 8.40133 11.8597 8.27627C12.6719 7.79007 13.5496 7.42313 14.4661 7.18667C14.7021 7.126 14.867 6.91307 14.8667 6.66933V2.6C14.8667 2.30547 15.1055 2.06667 15.4 2.06667H18.6C18.8945 2.06667 19.1333 2.30547 19.1333 2.6V6.66933C19.1332 6.91287 19.2981 7.12553 19.5339 7.18613C20.4503 7.42193 21.328 7.7882 22.1403 8.2736C22.3499 8.39867 22.6177 8.36553 22.7904 8.19307L25.6757 5.30773C25.8852 5.1066 26.2161 5.1066 26.4256 5.30773L28.6923 7.57493C28.8992 7.7808 28.9 8.11547 28.6941 8.3224C28.6935 8.323 28.6929 8.32367 28.6923 8.32427L25.8069 11.2096C25.634 11.3823 25.6006 11.6504 25.7259 11.8603C26.2118 12.6721 26.5782 13.5498 26.8139 14.4661C26.8745 14.7019 27.0871 14.8668 27.3307 14.8667H31.4C31.6945 14.8667 31.9333 15.1055 31.9333 15.4V18.6Z" fill="white"/>
<path d="M31.4 13.8H27.7365C27.5165 13.0626 27.219 12.3505 26.8491 11.6757L29.4464 9.0784C30.07 8.45607 30.0709 7.446 29.4486 6.82247C29.4479 6.82173 29.4471 6.821 29.4464 6.82027L27.1797 4.5536C26.5554 3.9318 25.5459 3.9318 24.9216 4.5536L22.3243 7.15093C21.6495 6.7812 20.9374 6.48387 20.2 6.264V2.6C20.2 1.71633 19.4837 1 18.6 1H15.4C14.5163 1 13.8 1.71633 13.8 2.6V6.264C13.0626 6.48387 12.3505 6.7812 11.6757 7.15093L9.0784 4.5536C8.45407 3.9318 7.4446 3.9318 6.82027 4.5536L4.5536 6.82027C3.93 7.4426 3.92907 8.45267 4.5514 9.0762C4.55213 9.07693 4.55287 9.07767 4.5536 9.0784L7.15093 11.6757C6.781 12.3505 6.48353 13.0626 6.26347 13.8H2.6C1.71633 13.8 1 14.5163 1 15.4V18.6C1 19.4837 1.71633 20.2 2.6 20.2H6.26347C6.48353 20.9374 6.781 21.6495 7.15093 22.3243L4.5536 24.9216C3.93 25.5439 3.92907 26.554 4.5514 27.1775C4.55213 27.1783 4.55287 27.179 4.5536 27.1797L6.82027 29.4464C7.4446 30.0682 8.45407 30.0682 9.0784 29.4464L11.6757 26.8491C12.3505 27.2189 13.0626 27.5162 13.8 27.736V31.4C13.8 32.2837 14.5163 33 15.4 33H18.6C19.4837 33 20.2 32.2837 20.2 31.4V27.736C20.9374 27.5162 21.6495 27.2189 22.3243 26.8491L24.9216 29.4464C25.5459 30.0682 26.5554 30.0682 27.1797 29.4464L29.4464 27.1797C30.0699 26.5574 30.0709 25.5473 29.4486 24.9238C29.4479 24.9231 29.4471 24.9223 29.4464 24.9216L26.8491 22.3243C27.219 21.6495 27.5165 20.9374 27.7365 20.2H31.4C32.2837 20.2 33 19.4837 33 18.6V15.4C33 14.5163 32.2837 13.8 31.4 13.8ZM31.9333 18.6C31.9333 18.8945 31.6945 19.1333 31.4 19.1333H27.3307C27.0871 19.1332 26.8745 19.298 26.8139 19.5339C26.5782 20.4502 26.2118 21.3279 25.7259 22.1397C25.6006 22.3496 25.634 22.6177 25.8069 22.7904L28.6923 25.6763C28.8992 25.8821 28.9 26.2168 28.6941 26.4237C28.6935 26.4243 28.6929 26.425 28.6923 26.4256L26.4256 28.6923C26.2161 28.8934 25.8852 28.8934 25.6757 28.6923L22.7904 25.8069C22.6178 25.6343 22.35 25.6009 22.1403 25.7259C21.3281 26.2115 20.4503 26.578 19.5339 26.8139C19.2981 26.8745 19.1332 27.0871 19.1333 27.3307V31.4C19.1333 31.6945 18.8945 31.9333 18.6 31.9333H15.4C15.1055 31.9333 14.8667 31.6945 14.8667 31.4V27.3307C14.8668 27.0871 14.702 26.8745 14.4661 26.8139C13.5497 26.578 12.6719 26.2115 11.8597 25.7259C11.65 25.6009 11.3822 25.6343 11.2096 25.8069L8.32427 28.6923C8.1148 28.8934 7.78387 28.8934 7.5744 28.6923L5.30773 26.4251C5.10187 26.2187 5.10187 25.8847 5.30773 25.6784L8.19307 22.7931C8.366 22.6203 8.3994 22.3523 8.27413 22.1424C7.7882 21.3305 7.4218 20.4529 7.18613 19.5365C7.12653 19.2997 6.9136 19.1335 6.66933 19.1333H2.6C2.30547 19.1333 2.06667 18.8945 2.06667 18.6V15.4C2.06667 15.1055 2.30547 14.8667 2.6 14.8667H6.66933C6.91287 14.8668 7.12553 14.7019 7.18613 14.4661C7.4218 13.5498 7.7882 12.6721 8.27413 11.8603C8.3994 11.6504 8.366 11.3823 8.19307 11.2096L5.30773 8.32373C5.10187 8.1174 5.10187 7.7834 5.30773 7.57707L7.5744 5.3104C7.78387 5.10927 8.1148 5.10927 8.32427 5.3104L11.2096 8.19573C11.3823 8.3682 11.6501 8.40133 11.8597 8.27627C12.6719 7.79007 13.5496 7.42313 14.4661 7.18667C14.7021 7.126 14.867 6.91307 14.8667 6.66933V2.6C14.8667 2.30547 15.1055 2.06667 15.4 2.06667H18.6C18.8945 2.06667 19.1333 2.30547 19.1333 2.6V6.66933C19.1332 6.91287 19.2981 7.12553 19.5339 7.18613C20.4503 7.42193 21.328 7.7882 22.1403 8.2736C22.3499 8.39867 22.6177 8.36553 22.7904 8.19307L25.6757 5.30773C25.8852 5.1066 26.2161 5.1066 26.4256 5.30773L28.6923 7.57493C28.8992 7.7808 28.9 8.11547 28.6941 8.3224C28.6935 8.323 28.6929 8.32367 28.6923 8.32427L25.8069 11.2096C25.634 11.3823 25.6006 11.6504 25.7259 11.8603C26.2118 12.6721 26.5782 13.5498 26.8139 14.4661C26.8745 14.7019 27.0871 14.8668 27.3307 14.8667H31.4C31.6945 14.8667 31.9333 15.1055 31.9333 15.4V18.6Z" stroke="white" stroke-width="0.4" mask="url(#path-1-outside-1_203_1078)"/>
<path d="M17.0001 11.5666H17C13.9993 11.5666 11.5667 13.9992 11.5667 17C11.5667 20.0007 13.9993 22.4333 17 22.4333C20.0008 22.4333 22.4334 20.0007 22.4334 17V16.9999C22.4301 14.0005 19.9995 11.5699 17.0001 11.5666ZM16.9999 21.1666C14.6988 21.1666 12.8334 19.3011 12.8334 17C12.8334 14.6988 14.6988 12.8333 17 12.8333C19.3012 12.8333 21.1666 14.6987 21.1667 16.9998C21.1641 19.3 19.3001 21.164 16.9999 21.1666Z" fill="white" stroke="white" stroke-width="0.2"/>
</svg>
