<svg width="17" height="17" viewBox="0 0 17 17" fill="none" xmlns="http://www.w3.org/2000/svg">
<path d="M8.5 0C5.20452 0 2.52344 2.68109 2.52344 5.97656C2.52344 7.09 2.83186 8.1766 3.41557 9.1193L8.1598 16.7646C8.25068 16.911 8.41078 17 8.58297 17C8.5843 17 8.5856 17 8.58693 17C8.76061 16.9986 8.92105 16.9069 9.01027 16.7579L13.6336 9.03856C14.1851 8.11577 14.4766 7.05696 14.4766 5.97656C14.4766 2.68109 11.7955 0 8.5 0ZM12.7788 8.52716L8.57544 15.5452L4.26219 8.5945C3.77632 7.80984 3.51289 6.90459 3.51289 5.97656C3.51289 3.23033 5.75377 0.989453 8.5 0.989453C11.2462 0.989453 13.4838 3.23033 13.4838 5.97656C13.4838 6.87706 13.2377 7.75917 12.7788 8.52716Z" fill="white" fill-opacity="0.7"/>
<path d="M8.5 2.98828C6.85226 2.98828 5.51172 4.32882 5.51172 5.97656C5.51172 7.61378 6.83045 8.96484 8.5 8.96484C10.1901 8.96484 11.4883 7.59578 11.4883 5.97656C11.4883 4.32882 10.1477 2.98828 8.5 2.98828ZM8.5 7.97539C7.39576 7.97539 6.50117 7.07781 6.50117 5.97656C6.50117 4.87807 7.40151 3.97773 8.5 3.97773C9.59849 3.97773 10.4955 4.87807 10.4955 5.97656C10.4955 7.06174 9.62173 7.97539 8.5 7.97539Z" fill="white" fill-opacity="0.7"/>
</svg>
