<svg width="16" height="16" viewBox="0 0 16 16" fill="none" xmlns="http://www.w3.org/2000/svg">
<path d="M7.89512 7.97031C9.96278 7.97031 11.6388 6.29423 11.6388 4.22667C11.6388 2.15921 9.96278 0.483032 7.89512 0.483032C5.82766 0.483032 4.15149 2.15921 4.15149 4.22667C4.15308 6.29354 5.82826 7.96872 7.89512 7.97031ZM7.89512 1.11753C9.61231 1.11753 11.0043 2.50948 11.0043 4.22667C11.0043 5.94386 9.61231 7.33581 7.89512 7.33581C6.17813 7.33581 4.78599 5.94386 4.78599 4.22667C4.78887 2.51077 6.17923 1.12031 7.89512 1.11753Z" fill="white"/>
<path d="M7.89496 8.90625C6.26755 8.90625 4.75414 9.53757 3.63113 10.6861C2.49213 11.8504 1.86707 13.4398 1.86707 15.1658C1.86756 15.3408 2.00938 15.4826 2.18436 15.483H13.6057C13.7807 15.4826 13.9224 15.3408 13.9229 15.1658C13.9229 13.4431 13.2979 11.8504 12.159 10.6893C11.0359 9.54075 9.52257 8.90625 7.89496 8.90625ZM2.50802 14.8485C2.57784 13.4146 3.13299 12.1043 4.08161 11.1334C5.08416 10.1086 6.43886 9.54403 7.89188 9.54403C9.34491 9.54403 10.6996 10.1086 11.7021 11.1334C12.6539 12.1043 13.2059 13.4146 13.2757 14.8485H2.50802Z" fill="white"/>
</svg>
