<svg width="428" height="108" viewBox="0 0 428 108" fill="none" xmlns="http://www.w3.org/2000/svg">
<path d="M63.0019 75.7513C63.0019 82.4698 63.0019 89.2723 63.0019 96.1588C42.0541 99.9379 21.1064 103.801 0 107.664C0 71.8041 0 36.028 0 0C21.0271 4.11509 41.9748 8.23018 63.0812 12.4293C63.0812 22.591 63.0812 32.6688 63.0812 42.9985C59.5106 44.6781 57.0508 47.3655 56.5747 52.1525C58.7964 52.4044 60.8595 52.7403 63.0812 52.9923C63.0812 54.336 63.0812 55.5957 63.0812 57.1074C58.003 58.4511 54.9878 61.7264 55.6225 67.6051C56.0193 72.0561 58.9551 74.4915 63.0019 75.7513ZM42.5302 54.0841C45.8628 50.1369 49.6715 46.8616 53.0041 42.7466C52.2106 42.4946 51.8932 42.3267 51.5758 42.3267C47.6085 42.3267 43.6411 42.2427 39.7531 42.3267C39.1976 42.3267 38.4835 42.7466 38.0868 43.2504C36.1031 45.5179 34.2781 47.8694 32.2944 50.2209C31.739 50.8928 31.1042 51.6486 30.5488 52.3204C30.4694 52.2365 30.3107 52.2365 30.2314 52.1525C30.2314 44.8461 30.2314 37.5397 30.2314 30.1493C26.026 30.1493 22.0586 30.1493 18.0119 30.1493C18.0119 45.266 18.0119 60.1307 18.0119 75.0794C22.2173 75.0794 26.1846 75.0794 30.3901 75.0794C30.3901 72.56 30.3901 70.2085 30.3901 67.941C30.3901 67.3531 30.4694 66.5973 30.8661 66.1774C31.8183 64.8337 32.9292 63.6579 34.1987 62.1463C36.4205 66.8492 38.4835 71.0483 40.3878 75.1634C44.9106 75.1634 49.1954 75.1634 53.9562 75.1634C50.0682 67.941 46.3389 61.0545 42.5302 54.0841Z" fill="white"/>
<path d="M428 43.0811C428 53.5788 428 63.9925 428 74.5741C424.588 74.5741 421.335 74.5741 417.765 74.5741C417.765 73.0625 417.765 71.5508 417.765 70.0391C417.606 69.9552 417.526 69.8712 417.368 69.8712C416.971 70.2071 416.574 70.543 416.257 70.8789C412.528 75.5819 407.132 76.2538 402.53 74.5741C398.642 73.2304 397.134 69.7872 396.817 65.7561C396.658 63.2366 396.658 60.6332 396.658 58.1138C396.658 53.7467 396.658 49.2957 396.658 44.9287C396.658 44.3408 396.658 43.7529 396.658 43.0811C400.387 43.0811 403.958 43.0811 407.687 43.0811C407.687 43.669 407.767 44.1728 407.767 44.6767C407.767 50.2195 407.767 55.7623 407.846 61.3051C407.925 64.4124 409.274 66.176 411.734 66.4279C413.956 66.6799 416.098 64.8323 416.654 62.2289C416.892 60.8852 417.05 59.5415 417.05 58.1978C417.13 53.7467 417.05 49.2957 417.05 44.8447C417.05 44.3408 417.05 43.7529 417.05 43.1651C420.78 43.0811 424.35 43.0811 428 43.0811Z" fill="white"/>
<path d="M379.282 74.5753C375.473 74.5753 372.061 74.5753 368.57 74.5753C368.57 64.0776 368.57 53.5799 368.57 43.0823C371.823 43.0823 375.076 43.0823 378.488 43.0823C378.568 44.426 378.647 45.8536 378.726 47.1973C378.885 47.2813 379.044 47.2813 379.202 47.3653C379.599 46.9454 379.996 46.5255 380.313 46.1056C382.852 41.9065 387.375 41.0667 391.501 44.0061C390.946 45.2658 390.39 46.6095 389.835 47.9532C389.279 49.2129 388.803 50.5566 388.169 51.9843C387.534 51.8163 387.058 51.6484 386.502 51.4804C384.043 50.7246 381.583 51.7323 380.869 54.3358C380.075 57.2751 379.678 60.3824 379.44 63.4058C379.202 66.597 379.44 69.7883 379.361 72.9796C379.44 73.4835 379.361 74.0714 379.282 74.5753Z" fill="white"/>
<path d="M348.255 74.5748C348.255 70.7116 348.255 66.9325 348.255 63.0693C352.143 63.0693 355.952 63.0693 359.919 63.0693C359.919 66.9325 359.919 70.6277 359.919 74.5748C356.031 74.5748 352.223 74.5748 348.255 74.5748Z" fill="white"/>
<path d="M78.1568 71.8041C78.7123 73.1478 79.109 74.0716 79.5057 75.1634C83.2351 75.1634 86.885 75.1634 90.7731 75.1634C90.6937 74.5755 90.6144 74.1556 90.535 73.7357C90.2176 71.8041 89.6622 69.9565 89.5829 68.025C89.4242 63.322 89.5829 58.703 89.5035 54.0001C89.5035 47.1976 86.1709 42.9985 79.8231 42.0747C76.5699 41.6548 73.1579 41.8228 69.8254 41.6548C69.3493 41.6548 68.9525 41.6548 68.3177 41.6548C68.3177 27.7979 68.3177 14.0249 68.3177 0C89.3448 4.11509 110.372 8.23018 131.32 12.4293C131.32 19.7356 131.32 26.8741 131.32 34.1805C130.447 34.6004 129.574 35.1042 128.701 35.5242C127.432 36.112 126.797 36.9518 126.876 38.5475C126.955 39.6392 126.876 40.815 126.876 42.1587C125.527 42.2427 124.258 42.3266 122.829 42.4106C122.829 45.6859 122.829 48.7092 122.829 51.9845C124.178 51.9845 125.448 51.9845 126.797 51.9845C126.876 52.6564 126.876 52.9923 126.876 53.4122C126.876 57.1074 126.876 60.8026 126.955 64.4978C127.035 68.6128 127.432 72.644 131.24 74.9114C131.24 82.0499 131.24 88.9364 131.24 96.0748C110.293 99.9379 89.3448 103.717 68.2384 107.664C68.2384 97.1665 68.2384 86.6689 68.2384 76.0872C71.9677 75.6673 75.3797 74.7435 78.1568 71.8041ZM108.229 75.1634C108.309 74.3236 108.388 73.6517 108.388 72.9799C108.468 69.1167 108.388 65.2536 108.547 61.3904C108.626 59.2909 108.944 57.1914 109.499 55.1758C110.293 52.2365 112.356 51.3127 115.053 52.2365C115.609 52.4044 116.085 52.5724 116.799 52.7403C118.069 49.633 119.259 46.6937 120.528 43.6704C118.624 42.2427 116.64 41.5708 114.419 41.5708C111.245 41.6548 109.261 43.5024 107.674 46.6937C107.595 45.0141 107.515 43.7543 107.436 42.4946C103.548 42.4946 99.898 42.4946 96.1687 42.4946C96.1687 53.4962 96.1687 64.3298 96.1687 75.1634C100.295 75.1634 104.183 75.1634 108.229 75.1634Z" fill="white"/>
<path d="M68.3981 63.742C70.9373 61.4745 74.4285 61.4745 77.4437 60.1308C77.9198 63.994 76.8883 66.3455 74.4285 67.6892C72.1275 68.9489 69.9851 68.7809 68.3981 67.2693C68.3981 66.1775 68.3981 65.0857 68.3981 63.742Z" fill="white"/>
<path d="M77.6798 53.3283C74.5852 54.1681 71.57 55.0919 68.4755 55.9317C67.9201 51.9846 68.8722 50.3049 71.7287 49.801C75.7754 49.1292 77.045 49.801 77.6798 53.3283Z" fill="white"/>
<path d="M278.193 54.0001C281.367 50.1369 285.334 47.0296 288.27 42.6626C283.271 42.1587 278.431 42.0747 273.511 42.4106C273.511 28.5537 273.511 14.3608 273.511 0C294.618 4.11509 315.645 8.23018 336.672 12.4293C336.672 40.3951 336.672 68.1929 336.672 96.1588C315.565 100.022 294.618 103.885 273.511 107.748C273.511 95.235 273.511 82.8897 273.511 70.0405C274.463 71.9721 275.178 73.5677 275.971 75.2474C280.335 75.2474 284.62 75.2474 289.381 75.2474C288.984 74.2396 288.746 73.4838 288.349 72.8119C285.096 66.7653 281.763 60.8026 278.431 54.8399C278.272 54.504 278.272 54.336 278.193 54.0001ZM311.677 53.2442C310.09 53.7481 308.503 54.42 306.837 54.8399C303.028 55.8477 299.14 56.6875 295.332 57.7792C291.999 58.787 290.015 61.3065 289.619 64.9177C289.143 68.8648 290.412 72.0561 293.665 74.2396C297.236 76.5911 301.124 76.2552 305.012 75.6673C307.789 75.2474 310.09 73.8197 312.153 71.8041C312.629 72.9799 313.106 74.0716 313.502 75.0794C317.311 75.0794 320.961 75.0794 324.452 75.0794C324.135 72.56 323.659 70.2925 323.659 67.941C323.5 63.1541 323.659 58.3671 323.579 53.5802C323.5 47.6175 320.247 43.2505 315.089 42.2427C310.249 41.2349 305.33 41.2349 300.41 42.0747C297.395 42.5786 294.697 43.7543 292.713 46.3578C291.444 47.9534 290.65 49.801 290.65 52.1525C294.538 52.5724 298.268 52.9923 301.838 53.3282C304.06 49.969 306.52 48.8772 309.773 49.801C311.281 50.2209 311.519 51.4806 311.677 53.2442Z" fill="white"/>
<path d="M311.438 60.1308C312.231 65.3377 309.375 68.8649 304.931 68.529C303.503 68.445 302.313 67.9411 301.916 66.2615C301.519 64.5818 302.154 63.4061 303.9 62.7343C306.359 61.7265 308.899 60.9706 311.438 60.1308Z" fill="white"/>
<path d="M199.797 96.1563C178.691 100.019 157.822 103.883 136.795 107.746C136.795 97.1641 136.795 86.8344 136.795 76.3367C139.89 76.0007 142.984 75.6648 146.396 75.2449C146.079 71.9696 145.762 69.0303 145.444 65.923C144.254 66.1749 143.381 66.4269 142.508 66.5948C140.604 66.9307 139.731 66.3429 139.652 64.3273C139.573 60.3802 139.652 56.4331 139.652 52.234C141.636 52.234 143.619 52.234 145.762 52.234C145.762 48.9587 145.762 45.9354 145.762 42.4921C143.778 42.4921 141.794 42.4921 139.493 42.4921C139.493 38.2091 139.493 34.3459 139.493 30.0629C138.462 30.4828 137.748 30.8187 136.875 31.2386C136.875 20.9089 136.875 10.5792 136.875 0.0815125C157.902 4.1966 178.849 8.31169 199.877 12.5108C199.877 19.1453 199.877 25.6959 199.877 32.4144C198.21 33.3382 196.465 34.4299 194.64 35.1858C192.735 36.0256 191.862 37.2853 192.18 39.3848C192.339 40.2246 192.18 41.0645 192.18 42.1562C190.831 42.2402 189.482 42.3242 188.054 42.4921C188.054 45.6834 188.054 48.7068 188.054 52.066C189.323 52.15 190.672 52.15 192.18 52.234C192.18 52.9058 192.18 53.4937 192.18 54.0816C192.259 58.5326 192.259 62.9836 192.497 67.4346C192.735 72.1376 195.116 75.2449 199.162 75.9168C199.321 75.9168 199.559 76.0847 199.797 76.1687C199.797 82.7193 199.797 89.3538 199.797 96.1563ZM167.265 41.2324C164.884 41.7363 162.345 41.9883 160.123 42.7441C154.093 44.9276 150.443 49.3786 149.65 56.0971C148.697 63.2356 150.84 69.1982 156.791 73.1454C162.028 76.5886 167.82 76.7566 173.533 75.077C186.864 71.1298 187.578 53.8296 180.595 46.6912C176.786 42.996 172.343 41.6523 167.265 41.2324Z" fill="white"/>
<path d="M172.661 59.2071C172.502 60.2989 172.423 61.7266 172.026 63.0703C171.312 65.5897 169.646 66.9334 167.345 67.0174C164.964 67.1014 163.06 65.7577 162.346 63.3222C161.473 60.5508 161.473 57.6115 162.266 54.8401C163.06 52.1527 165.123 50.725 167.583 50.893C169.884 51.0609 171.788 52.9085 172.264 55.7639C172.502 56.6877 172.502 57.7794 172.661 59.2071Z" fill="white"/>
<path d="M211.302 75.0794C210.985 71.8881 210.668 68.9488 210.429 66.0934C208.446 65.9254 206.779 67.4371 205.113 66.0094C205.113 61.4744 205.113 56.8554 205.113 52.0685C207.018 52.0685 208.763 52.0685 210.668 52.0685C210.668 48.7932 210.668 45.7699 210.668 42.4106C208.843 42.4106 207.018 42.4106 205.113 42.4106C205.113 28.1338 205.113 14.1929 205.113 0C226.22 4.11509 247.088 8.23018 268.115 12.4293C268.115 24.8585 268.115 37.1198 268.115 49.633C267.56 50.3889 266.845 51.3127 266.131 52.1525C265.973 52.0685 265.893 52.0685 265.735 51.9845C265.735 44.7621 265.735 37.5397 265.735 30.0654C261.529 30.0654 257.562 30.0654 253.356 30.0654C253.356 45.098 253.356 60.0467 253.356 75.0794C257.482 75.0794 261.529 75.0794 265.814 75.0794C265.814 73.0639 265.973 71.2163 265.814 69.4527C265.576 67.2691 266.29 65.6735 268.115 64.3298C268.115 74.9115 268.115 85.4091 268.115 96.0748C247.167 99.9379 226.22 103.801 205.113 107.664C205.113 97.0826 205.113 86.6689 205.113 76.0872C207.097 75.7513 209.081 75.4153 211.302 75.0794ZM249.944 62.1463C249.944 60.2147 250.103 58.6191 249.944 57.0234C249.31 50.6408 246.691 45.6019 240.82 43.0825C237.17 41.4868 233.361 41.4029 229.473 41.6548C226.696 41.8228 223.998 42.5786 221.617 44.1742C215.746 48.1214 213.841 54.0001 214.476 61.0545C215.032 68.109 219.792 74.5755 226.616 75.4993C229.473 75.8353 232.409 75.9192 235.345 75.8353C241.058 75.7513 245.66 73.2318 248.675 67.941C248.913 67.5211 249.151 67.1012 249.468 66.2614C245.342 65.8415 241.534 65.4215 237.725 65.0856C235.583 67.773 232.964 68.8648 229.87 67.4371C227.886 66.5133 227.172 64.5817 226.934 62.1463C234.63 62.1463 242.248 62.1463 249.944 62.1463Z" fill="white"/>
<path d="M227.012 55.4277C227.329 51.6485 229.551 49.381 232.646 49.549C235.582 49.7169 237.486 51.9844 237.407 55.4277C233.995 55.4277 230.503 55.4277 227.012 55.4277Z" fill="white"/>
</svg>
