<svg width="207" height="206" viewBox="0 0 207 206" fill="none" xmlns="http://www.w3.org/2000/svg">
<circle cx="103.461" cy="103" r="103" fill="#656CFF"/>
<circle cx="103.461" cy="103" r="103" fill="url(#paint0_linear_203_620)" fill-opacity="0.5"/>
<path d="M204.461 103C205.566 103 206.463 102.104 206.442 101C206.06 81.3273 200.05 62.1598 189.102 45.7763C177.785 28.838 161.698 15.6362 142.877 7.84041C124.057 0.0445819 103.347 -1.99516 83.3668 1.97912C64.0411 5.82324 46.2378 15.1269 32.057 28.7675C31.2609 29.5333 31.2622 30.8012 32.0433 31.5822L102.875 102.414C103.25 102.789 103.759 103 104.29 103H204.461Z" fill="#646981"/>
<path d="M204.461 103C205.566 103 206.463 102.104 206.442 101C206.06 81.3273 200.05 62.1598 189.102 45.7763C177.785 28.838 161.698 15.6362 142.877 7.84041C124.057 0.0445819 103.347 -1.99516 83.3668 1.97912C64.0411 5.82324 46.2378 15.1269 32.057 28.7675C31.2609 29.5333 31.2622 30.8012 32.0433 31.5822L102.875 102.414C103.25 102.789 103.759 103 104.29 103H204.461Z" fill="url(#paint1_linear_203_620)"/>
<path d="M120.242 60H110.262V57.9004L113.846 54.2773C114.907 53.1901 115.6 52.4382 115.926 52.0215C116.251 51.5983 116.486 51.2077 116.629 50.8496C116.772 50.4915 116.844 50.1204 116.844 49.7363C116.844 49.1634 116.684 48.737 116.365 48.457C116.053 48.1771 115.633 48.0371 115.106 48.0371C114.552 48.0371 114.015 48.1641 113.494 48.418C112.973 48.6719 112.43 49.0332 111.863 49.502L110.223 47.5586C110.926 46.9596 111.509 46.5365 111.971 46.2891C112.433 46.0417 112.938 45.8529 113.485 45.7227C114.031 45.5859 114.643 45.5176 115.32 45.5176C116.212 45.5176 117 45.6803 117.684 46.0059C118.367 46.3314 118.898 46.7871 119.276 47.373C119.653 47.959 119.842 48.6296 119.842 49.3848C119.842 50.0423 119.725 50.6608 119.49 51.2402C119.263 51.8132 118.904 52.4023 118.416 53.0078C117.934 53.6133 117.082 54.4759 115.858 55.5957L114.022 57.3242V57.4609H120.242V60ZM127.383 50.8789C128.763 50.8789 129.86 51.2663 130.674 52.041C131.494 52.8158 131.904 53.877 131.904 55.2246C131.904 56.8197 131.413 58.0469 130.43 58.9062C129.447 59.7656 128.041 60.1953 126.211 60.1953C124.623 60.1953 123.34 59.9382 122.363 59.4238V56.8164C122.878 57.0898 123.477 57.3145 124.16 57.4902C124.844 57.6595 125.492 57.7441 126.104 57.7441C127.946 57.7441 128.867 56.9889 128.867 55.4785C128.867 54.0397 127.914 53.3203 126.006 53.3203C125.661 53.3203 125.28 53.3561 124.863 53.4277C124.447 53.4928 124.108 53.5645 123.848 53.6426L122.647 52.998L123.184 45.7227H130.928V48.2812H125.83L125.567 51.084L125.908 51.0156C126.305 50.9245 126.797 50.8789 127.383 50.8789ZM136.389 50C136.389 50.8268 136.46 51.4453 136.604 51.8555C136.753 52.2591 136.991 52.4609 137.317 52.4609C137.942 52.4609 138.254 51.6406 138.254 50C138.254 48.3724 137.942 47.5586 137.317 47.5586C136.991 47.5586 136.753 47.7604 136.604 48.1641C136.46 48.5612 136.389 49.1732 136.389 50ZM140.715 49.9805C140.715 51.4779 140.425 52.6042 139.846 53.3594C139.266 54.1081 138.417 54.4824 137.297 54.4824C136.223 54.4824 135.393 54.0983 134.807 53.3301C134.221 52.5553 133.928 51.4388 133.928 49.9805C133.928 47.0052 135.051 45.5176 137.297 45.5176C138.397 45.5176 139.24 45.9049 139.826 46.6797C140.419 47.4479 140.715 48.5482 140.715 49.9805ZM147.434 45.7227L139.514 60H137.17L145.09 45.7227H147.434ZM146.389 55.7031C146.389 56.5299 146.46 57.1484 146.604 57.5586C146.753 57.9622 146.991 58.1641 147.317 58.1641C147.942 58.1641 148.254 57.3438 148.254 55.7031C148.254 54.0755 147.942 53.2617 147.317 53.2617C146.991 53.2617 146.753 53.4635 146.604 53.8672C146.46 54.2643 146.389 54.8763 146.389 55.7031ZM150.715 55.6836C150.715 57.1745 150.425 58.2975 149.846 59.0527C149.266 59.8014 148.417 60.1758 147.297 60.1758C146.223 60.1758 145.393 59.7917 144.807 59.0234C144.221 58.2487 143.928 57.1354 143.928 55.6836C143.928 52.7083 145.051 51.2207 147.297 51.2207C148.397 51.2207 149.24 51.6081 149.826 52.3828C150.419 53.151 150.715 54.2513 150.715 55.6836Z" fill="white"/>
<path d="M65.6779 152L71.0392 140.281H63.9982V137.742H74.2423V139.637L68.8419 152H65.6779ZM81.3829 142.879C82.7632 142.879 83.8602 143.266 84.674 144.041C85.4943 144.816 85.9044 145.877 85.9044 147.225C85.9044 148.82 85.4129 150.047 84.4298 150.906C83.4468 151.766 82.0405 152.195 80.2111 152.195C78.6225 152.195 77.34 151.938 76.3634 151.424V148.816C76.8777 149.09 77.4767 149.314 78.1603 149.49C78.8439 149.66 79.4917 149.744 80.1037 149.744C81.9461 149.744 82.8673 148.989 82.8673 147.479C82.8673 146.04 81.9135 145.32 80.006 145.32C79.6609 145.32 79.2801 145.356 78.8634 145.428C78.4468 145.493 78.1082 145.564 77.8478 145.643L76.6466 144.998L77.1837 137.723H84.9279V140.281H79.8302L79.5665 143.084L79.9083 143.016C80.3055 142.924 80.797 142.879 81.3829 142.879ZM90.3888 142C90.3888 142.827 90.4604 143.445 90.6037 143.855C90.7534 144.259 90.991 144.461 91.3165 144.461C91.9415 144.461 92.254 143.641 92.254 142C92.254 140.372 91.9415 139.559 91.3165 139.559C90.991 139.559 90.7534 139.76 90.6037 140.164C90.4604 140.561 90.3888 141.173 90.3888 142ZM94.715 141.98C94.715 143.478 94.4253 144.604 93.8458 145.359C93.2664 146.108 92.4168 146.482 91.297 146.482C90.2228 146.482 89.3927 146.098 88.8068 145.33C88.2208 144.555 87.9279 143.439 87.9279 141.98C87.9279 139.005 89.0509 137.518 91.297 137.518C92.3973 137.518 93.2404 137.905 93.8263 138.68C94.4188 139.448 94.715 140.548 94.715 141.98ZM101.434 137.723L93.5138 152H91.1701L99.09 137.723H101.434ZM100.389 147.703C100.389 148.53 100.46 149.148 100.604 149.559C100.753 149.962 100.991 150.164 101.317 150.164C101.942 150.164 102.254 149.344 102.254 147.703C102.254 146.076 101.942 145.262 101.317 145.262C100.991 145.262 100.753 145.464 100.604 145.867C100.46 146.264 100.389 146.876 100.389 147.703ZM104.715 147.684C104.715 149.174 104.425 150.298 103.846 151.053C103.266 151.801 102.417 152.176 101.297 152.176C100.223 152.176 99.3927 151.792 98.8068 151.023C98.2208 150.249 97.9279 149.135 97.9279 147.684C97.9279 144.708 99.0509 143.221 101.297 143.221C102.397 143.221 103.24 143.608 103.826 144.383C104.419 145.151 104.715 146.251 104.715 147.684Z" fill="white"/>
<defs>
<linearGradient id="paint0_linear_203_620" x1="-35.0389" y1="20.5" x2="212.961" y2="188" gradientUnits="userSpaceOnUse">
<stop stop-color="#B61AFF"/>
<stop offset="1" stop-color="#001AFF"/>
</linearGradient>
<linearGradient id="paint1_linear_203_620" x1="103.461" y1="-4.85778e-06" x2="184.961" y2="103" gradientUnits="userSpaceOnUse">
<stop stop-color="#43E9FF"/>
<stop offset="1" stop-color="#00ABAB"/>
</linearGradient>
</defs>
</svg>
